<svg xmlns="http://www.w3.org/2000/svg" xmlns:xlink="http://www.w3.org/1999/xlink" width="2026.225" height="798.308" viewBox="0 0 2026.225 798.308">
  <defs>
    <clipPath id="clip-path">
      <path id="Mask" d="M365.2,397.247q0,179.417.011,358.834a37.072,37.072,0,0,1-5.695,20.259A37.479,37.479,0,0,1,332.8,793.907a33.41,33.41,0,0,1-5.4.391q-144.754.027-289.509.012A37.943,37.943,0,0,1,.481,762.395a42.042,42.042,0,0,1-.447-6.58Q0,671.318.016,586.821.016,312.653,0,38.489A37.322,37.322,0,0,1,5.137,18.92,37.1,37.1,0,0,1,31.525.621,33.548,33.548,0,0,1,37.239.036c12.6-.052,25.2-.036,37.8-.025,3.2,0,5.047,1.665,5.381,4.843.13,1.228.2,2.468.217,3.7a19.444,19.444,0,0,0,1.466,7.6c3.264,7.567,8.94,12.007,17.173,13.021a36.024,36.024,0,0,0,4.392.223q79.838.017,159.67.01a21.561,21.561,0,0,0,10.915-2.553,20.522,20.522,0,0,0,11-18.059c.057-1.462.1-2.927.243-4.38A4.873,4.873,0,0,1,290.1.018c.393-.03.791-.011,1.186-.011H327.05a37.906,37.906,0,0,1,37.27,29.834,61.234,61.234,0,0,1,.861,7.385c.087.893.016,1.807.016,2.711v357.31" transform="translate(0.005 0)" fill="none" stroke="#707070" stroke-width="2" opacity="0.2"/>
    </clipPath>
    <clipPath id="clip-path-4">
      <path id="Mask-4" data-name="Mask" d="M365.194,397.246q0,179.417.011,358.834a37.073,37.073,0,0,1-5.695,20.259,37.479,37.479,0,0,1-26.716,17.567,33.438,33.438,0,0,1-5.4.391q-144.754.027-289.508.012A37.943,37.943,0,0,1,.481,762.394a42.039,42.039,0,0,1-.447-6.58Q0,671.318.016,586.821.016,312.653,0,38.489A37.322,37.322,0,0,1,5.137,18.92,37.1,37.1,0,0,1,31.525.621,33.547,33.547,0,0,1,37.239.036c12.6-.052,25.2-.036,37.8-.025,3.2,0,5.047,1.665,5.381,4.843.13,1.228.2,2.468.217,3.7a19.444,19.444,0,0,0,1.466,7.6c3.264,7.567,8.94,12.007,17.172,13.021a36.024,36.024,0,0,0,4.392.223q79.838.017,159.67.01a21.561,21.561,0,0,0,10.915-2.553,20.522,20.522,0,0,0,11-18.059c.057-1.462.1-2.927.243-4.38A4.873,4.873,0,0,1,290.1.018c.393-.03.791-.011,1.186-.011h35.765a37.906,37.906,0,0,1,37.269,29.834,61.246,61.246,0,0,1,.861,7.385c.087.893.016,1.807.016,2.711V397.246" transform="translate(0.005 0)" fill="none" stroke="#707070" stroke-width="2" opacity="0.2"/>
    </clipPath>
  </defs>
  <g id="Group_625" data-name="Group 625" transform="translate(59.933 -7579.685)">
    <g id="Group_621" data-name="Group 621">
      <g id="Mask_Group_29" data-name="Mask Group 29" transform="translate(1599.72 7581.183)" clip-path="url(#clip-path)">
        <g id="Group_289" data-name="Group 289" transform="translate(-36.355 0)">
          <g id="Group_288" data-name="Group 288" transform="translate(0)">
            <rect id="Rectangle_446" data-name="Rectangle 446" width="107" height="131" transform="translate(68.634 388.817)" fill="#f2f2f2"/>
            <rect id="Rectangle_451" data-name="Rectangle 451" width="107" height="131" transform="translate(68.634 538.817)" fill="#f2f2f2"/>
            <rect id="Rectangle_452" data-name="Rectangle 452" width="107" height="130" transform="translate(68.634 689.817)" fill="#f2f2f2"/>
            <g id="Rectangle_440" data-name="Rectangle 440" transform="translate(-0.366 708.817)" fill="#fff" stroke="#707070" stroke-width="0.5">
              <rect width="462" height="141" stroke="none"/>
              <rect x="0.25" y="0.25" width="461.5" height="140.5" fill="none"/>
            </g>
            <path id="Mask-6" data-name="Mask" d="M365.2,397.247q0,179.417.011,358.834a37.072,37.072,0,0,1-5.695,20.259A37.479,37.479,0,0,1,332.8,793.907a33.41,33.41,0,0,1-5.4.391q-144.754.027-289.509.012A37.943,37.943,0,0,1,.481,762.395a42.042,42.042,0,0,1-.447-6.58Q0,671.318.016,586.821.016,312.653,0,38.489A37.322,37.322,0,0,1,5.137,18.92,37.1,37.1,0,0,1,31.525.621,33.548,33.548,0,0,1,37.239.036c12.6-.052,25.2-.036,37.8-.025,3.2,0,5.047,1.665,5.381,4.843.13,1.228.2,2.468.217,3.7a19.444,19.444,0,0,0,1.466,7.6c3.264,7.567,8.94,12.007,17.173,13.021a36.024,36.024,0,0,0,4.392.223q79.838.017,159.67.01a21.561,21.561,0,0,0,10.915-2.553,20.522,20.522,0,0,0,11-18.059c.057-1.462.1-2.927.243-4.38A4.873,4.873,0,0,1,290.1.018c.393-.03.791-.011,1.186-.011H327.05a37.906,37.906,0,0,1,37.27,29.834,61.234,61.234,0,0,1,.861,7.385c.087.893.016,1.807.016,2.711v357.31" transform="translate(34.36 0)" fill="none" stroke="#707070" stroke-width="2" opacity="0.2"/>
            <ellipse id="Ellipse_143" data-name="Ellipse 143" cx="22" cy="21" rx="22" ry="21" transform="translate(71.634 728.817)" fill="#f2f2f2"/>
            <ellipse id="Ellipse_144" data-name="Ellipse 144" cx="21.5" cy="21" rx="21.5" ry="21" transform="translate(133.634 728.817)" fill="#f2f2f2"/>
            <ellipse id="Ellipse_145" data-name="Ellipse 145" cx="22" cy="21" rx="22" ry="21" transform="translate(199.634 726.817)" fill="#f2f2f2"/>
            <ellipse id="Ellipse_146" data-name="Ellipse 146" cx="22" cy="21" rx="22" ry="21" transform="translate(262.634 728.817)" fill="#f2f2f2"/>
            <ellipse id="Ellipse_147" data-name="Ellipse 147" cx="21.5" cy="21" rx="21.5" ry="21" transform="translate(328.634 728.817)" fill="#f2f2f2"/>
            <path id="Path_351" data-name="Path 351" d="M257.169,348.395a4.762,4.762,0,1,1,4.762-4.762A4.762,4.762,0,0,1,257.169,348.395Zm0-8.507a3.745,3.745,0,1,0,3.745,3.745,3.745,3.745,0,0,0-3.745-3.745Z" transform="translate(92.639 398.062)" fill="#a5a5a5"/>
            <path id="Path_352" data-name="Path 352" d="M257.086,348.356a4.8,4.8,0,1,1,4.8-4.8A4.8,4.8,0,0,1,257.086,348.356Zm0-9.525a4.72,4.72,0,1,0,4.72,4.72A4.72,4.72,0,0,0,257.086,338.831Zm0,8.507a3.788,3.788,0,1,1,3.788-3.788A3.788,3.788,0,0,1,257.086,347.339Zm0-7.49a3.7,3.7,0,1,0,3.7,3.7,3.7,3.7,0,0,0-3.7-3.7Z" transform="translate(92.722 398.146)" fill="#a5a5a5"/>
            <path id="Path_353" data-name="Path 353" d="M256.978,380.453H239.1a.509.509,0,0,1-.509-.509,9.449,9.449,0,0,1,18.9,0A.509.509,0,0,1,256.978,380.453Zm-17.357-1.017h16.833a8.432,8.432,0,0,0-16.833,0Z" transform="translate(101.772 377.163)" fill="#a5a5a5"/>
            <path id="Path_354" data-name="Path 354" d="M256.9,380.412H239.015a.552.552,0,0,1-.552-.552,9.491,9.491,0,0,1,18.983,0A.552.552,0,0,1,256.9,380.412Zm-8.941-9.958a9.418,9.418,0,0,0-9.406,9.406.467.467,0,0,0,.467.467H256.9a.467.467,0,0,0,.467-.467,9.418,9.418,0,0,0-9.408-9.405Zm8.462,8.94H239.493v-.045a8.474,8.474,0,0,1,16.918,0Zm-16.833-.085h16.743a8.389,8.389,0,0,0-16.743,0Z" transform="translate(101.854 377.246)" fill="#a5a5a5"/>
            <path id="Path_355" data-name="Path 355" d="M414.683,359.578l-4.886-4.886a8.579,8.579,0,1,0-.846.846l4.886,4.885a.6.6,0,0,0,.423.179.588.588,0,0,0,.423-.179A.6.6,0,0,0,414.683,359.578Zm-18.727-10.507a7.37,7.37,0,1,1,7.37,7.37,7.37,7.37,0,0,1-7.37-7.37Z" transform="translate(-248.735 399.428)" fill="#a5a5a5"/>
            <path id="Path_356" data-name="Path 356" d="M555.408,358.312l-1.631-2.718a8.079,8.079,0,0,1-1.15-4.154V349.06a6.647,6.647,0,1,0-13.294,0v2.383a8.079,8.079,0,0,1-1.149,4.153l-1.632,2.719a.475.475,0,0,0,.408.719H555a.475.475,0,0,0,.408-.719Zm-17.612-.231,1.2-2a9.02,9.02,0,0,0,1.285-4.642V349.06a5.7,5.7,0,0,1,11.4,0v2.383a9.025,9.025,0,0,0,1.285,4.642l1.2,2Z" transform="translate(-262.051 398.152)" fill="#a5a5a5"/>
            <path id="Path_357" data-name="Path 357" d="M557.47,334.062a1.9,1.9,0,0,0-1.9,1.9v1.9a.475.475,0,1,0,.95,0v-1.9a.949.949,0,1,1,1.9,0v1.9a.475.475,0,0,0,.949,0v-1.9a1.9,1.9,0,0,0-1.9-1.9Z" transform="translate(-273.542 403.178)" fill="#a5a5a5"/>
            <path id="Path_358" data-name="Path 358" d="M558.807,382.019a.476.476,0,0,0-.821.481,1.424,1.424,0,1,1-2.467,0,.476.476,0,0,0-.821-.481,2.375,2.375,0,1,0,4.108,0Z" transform="translate(-272.825 374.448)" fill="#a5a5a5"/>
            <path id="Path_359" data-name="Path 359" d="M264.534,109.527a.419.419,0,0,0-.42.42v3.722a1.258,1.258,0,0,1-1.257,1.257H251.1a1.258,1.258,0,0,1-1.257-1.257V102.746a1.26,1.26,0,0,1,1.257-1.257h3.722a.419.419,0,1,0,0-.839H251.1a2.1,2.1,0,0,0-2.1,2.095v10.923a2.1,2.1,0,0,0,2.1,2.1h11.761a2.1,2.1,0,0,0,2.1-2.1v-3.722A.419.419,0,0,0,264.534,109.527Z" transform="translate(-37.094 641.092)" fill="#a5a5a5"/>
            <path id="Path_360" data-name="Path 360" d="M271.528,97.073a1.886,1.886,0,0,0-2.668,0l-7.481,7.481a.418.418,0,0,0-.112.184l-.984,3.55a.419.419,0,0,0,.516.516l3.551-.984a.416.416,0,0,0,.184-.112l7.481-7.481a1.888,1.888,0,0,0,0-2.668Zm-9.232,7.75,6.12-6.12,1.973,1.973-6.12,6.12Zm-.394.792,1.577,1.578-2.181.6Zm9.526-5.975-.447.447-1.968-1.976.447-.447a1.047,1.047,0,0,1,1.482,0l.492.491a1.05,1.05,0,0,1-.008,1.485Z" transform="translate(-43.916 643.59)" fill="#a5a5a5"/>
            <rect id="Rectangle_441" data-name="Rectangle 441" width="4" height="5" transform="translate(364.634 39.817)" fill="#efecd7"/>
            <rect id="Rectangle_442" data-name="Rectangle 442" width="3" height="3" transform="translate(338.634 46.817)" fill="#efecd7"/>
            <rect id="Rectangle_443" data-name="Rectangle 443" width="118" height="29" transform="translate(57.634 75.817)" fill="#f2f2f2"/>
            <path id="Path_361" data-name="Path 361" d="M332.3,343.439l-9.547-8.865-9.546,8.865a.335.335,0,1,0,.453.488l1.1-1.026V354h15.977V342.9l1.105,1.026a.335.335,0,0,0,.453-.488Zm-11.544,9.9v-5.326a2,2,0,1,1,3.994,0v5.326Zm9.319,0h-4.66v-5.326a2.663,2.663,0,0,0-5.326,0v5.326h-4.66V342.281l7.323-6.8,7.323,6.8Z" transform="translate(-230.602 406.63)" fill="#a5a5a5"/>
            <path id="Path_362" data-name="Path 362" d="M330.69,353.924H314.635V342.87l-1.038.965a.391.391,0,0,1-.268.1.372.372,0,0,1-.239-.644l9.573-8.889.027.025,9.547,8.865a.372.372,0,1,1-.507.545l-1.038-.965Zm-15.977-.078h15.9V342.694l1.171,1.088a.3.3,0,0,0,.414-.016.294.294,0,0,0-.014-.414l-9.52-8.84-9.519,8.839a.294.294,0,0,0,.189.508.28.28,0,0,0,.211-.078l1.17-1.088Zm15.311-.587h-4.738V347.9a2.624,2.624,0,0,0-5.248,0v5.36H315.3V342.149l.012-.011,7.35-6.825.027.025,7.335,6.811Zm-4.66-.078h4.578v-11l-7.284-6.762-7.284,6.762v11h4.578v-5.286a2.7,2.7,0,1,1,5.4,0Zm-.67.078h-4.072V347.9a2.037,2.037,0,1,1,4.072,0Zm-3.994-.078h3.916v-5.286a1.958,1.958,0,0,0-3.916,0Z" transform="translate(-230.514 406.747)" fill="#a5a5a5"/>
            <path id="Path_363" data-name="Path 363" d="M330.644,353.848H314.51v-11l-.973.9a.421.421,0,0,1-.3.112.412.412,0,0,1-.265-.712l9.6-8.914.054.049,9.547,8.865a.411.411,0,0,1,.021.582.424.424,0,0,1-.582.021l-.973-.9Zm-15.977-.157h15.819V342.485l1.237,1.149a.261.261,0,0,0,.359-.013.255.255,0,0,0-.012-.36l-9.491-8.815-9.491,8.815a.256.256,0,0,0-.013.36.252.252,0,0,0,.176.08.238.238,0,0,0,.183-.068l1.237-1.149Zm15.311-.509h-4.817v-5.4a2.584,2.584,0,1,0-5.169,0v5.4h-4.817V342.015l7.4-6.872.054.049,7.348,6.823Zm-4.66-.157h4.5V342.081l-7.245-6.726-7.243,6.726v10.943h4.5v-5.248a2.741,2.741,0,0,1,5.483,0Zm-.67.157H320.5v-5.4a2.076,2.076,0,1,1,4.152,0Zm-3.994-.157h3.837v-5.248a1.918,1.918,0,0,0-3.837,0Z" transform="translate(-230.429 406.864)" fill="#a5a5a5"/>
            <path id="Path_364" data-name="Path 364" d="M330.6,353.768H314.384V342.825l-.907.842a.46.46,0,0,1-.319.12h0a.447.447,0,0,1-.292-.782l9.626-8.94.08.075L332.121,343a.447.447,0,0,1-.289.776h-.019a.447.447,0,0,1-.306-.112l-.907-.842Zm-16.134-.078h16.056V342.635l1.039.965a.372.372,0,1,0,.507-.544l-9.573-8.889-9.571,8.893a.372.372,0,0,0,.239.644h0a.378.378,0,0,0,.265-.1l1.038-.965Zm15.977-.078h-15.9V342.46l-1.17,1.086a.273.273,0,0,1-.213.078.288.288,0,0,1-.2-.093.3.3,0,0,1,.016-.415l9.519-8.84.027.025,9.491,8.815a.291.291,0,0,1-.19.506.307.307,0,0,1-.21-.076l-1.171-1.088Zm-15.819-.078h15.744V342.279l1.3,1.21a.213.213,0,0,0,.145.055h.009a.212.212,0,0,0,.138-.37l-9.467-8.79-9.466,8.79a.215.215,0,0,0-.011.3.212.212,0,0,0,.148.068.2.2,0,0,0,.155-.057l1.3-1.21Zm15.311-.43h-4.9V347.66a2.545,2.545,0,1,0-5.09,0V353.1h-4.9V341.881l.012-.011,7.428-6.9.08.074,7.361,6.835Zm-4.817-.078h4.739V341.916l-7.362-6.836-7.362,6.836v11.109h4.739v-5.36a2.624,2.624,0,1,1,5.248,0Zm-.508.078h-4.23V347.66a2.115,2.115,0,1,1,4.23,0Zm-4.152-.078h4.072v-5.36a2.037,2.037,0,1,0-4.072,0Zm9.319-.078H325.2v-5.286a2.7,2.7,0,1,0-5.4,0v5.286h-4.578v-11l.012-.011,7.27-6.751.027.025,7.258,6.739Zm-4.5-.078H329.7V341.985l-7.206-6.691-7.2,6.691v10.878h4.424v-5.208a2.781,2.781,0,1,1,5.562,0Zm-.823.078h-3.916v-5.286a1.958,1.958,0,1,1,3.916,0Zm-3.837-.078h3.759v-5.208a1.879,1.879,0,1,0-3.759,0Z" transform="translate(-230.344 406.982)" fill="#a5a5a5"/>
            <ellipse id="Ellipse_148" data-name="Ellipse 148" cx="43.5" cy="45.5" rx="43.5" ry="45.5" transform="translate(68.634 135.817)" fill="#e3e3e3"/>
            <rect id="Rectangle_444" data-name="Rectangle 444" width="189" height="47" transform="translate(175.634 157.817)" fill="#f2f2f2"/>
            <rect id="Rectangle_445" data-name="Rectangle 445" width="367" height="92" transform="translate(31.634 245.817)" fill="#f2f2f2"/>
            <rect id="Rectangle_448" data-name="Rectangle 448" width="87" height="29" transform="translate(58.634 275.817)" fill="#e3e3e3"/>
            <rect id="Rectangle_449" data-name="Rectangle 449" width="82" height="29" transform="translate(175.634 275.817)" fill="#e3e3e3"/>
            <rect id="Rectangle_450" data-name="Rectangle 450" width="82" height="29" transform="translate(292.634 275.817)" fill="#e3e3e3"/>
          </g>
          <line id="Line_32" data-name="Line 32" x2="186.852" transform="translate(187.522 501.204)" fill="none" stroke="#707070" stroke-width="0.25"/>
          <line id="Line_33" data-name="Line 33" x2="186.852" transform="translate(187.522 650.831)" fill="none" stroke="#707070" stroke-width="0.25"/>
          <text id="User_name" data-name="User name" transform="translate(210.634 425.817)" fill="#a5a5a5" font-size="8" font-family="Gilroy-Light, Gilroy" font-weight="300"><tspan x="0" y="0">User name</tspan></text>
          <text id="User_name-2" data-name="User name" transform="translate(210.634 581.817)" fill="#a5a5a5" font-size="8" font-family="Gilroy-Light, Gilroy" font-weight="300"><tspan x="0" y="0">User name</tspan></text>
          <text id="_201" data-name="201" transform="translate(200.634 512.817)" fill="#a5a5a5" font-size="7" font-family="Gilroy-Light, Gilroy" font-weight="300"><tspan x="0" y="0">201</tspan></text>
          <text id="_201-2" data-name="201" transform="translate(200.634 664.817)" fill="#a5a5a5" font-size="7" font-family="Gilroy-Light, Gilroy" font-weight="300"><tspan x="0" y="0">201</tspan></text>
          <text id="_201-3" data-name="201" transform="translate(232.634 512.817)" fill="#a5a5a5" font-size="7" font-family="Gilroy-Light, Gilroy" font-weight="300"><tspan x="0" y="0">2</tspan></text>
          <text id="_201-4" data-name="201" transform="translate(232.634 664.817)" fill="#a5a5a5" font-size="7" font-family="Gilroy-Light, Gilroy" font-weight="300"><tspan x="0" y="0">2</tspan></text>
          <text id="Added_to_Wishlist" data-name="Added to Wishlist" transform="translate(287.634 513.817)" fill="#a5a5a5" font-size="7" font-family="Gilroy-Light, Gilroy" font-weight="300"><tspan x="0" y="0">Added to Wishlist</tspan></text>
          <text id="Added_to_Wishlist-2" data-name="Added to Wishlist" transform="translate(290.634 662.817)" fill="#a5a5a5" font-size="7" font-family="Gilroy-Light, Gilroy" font-weight="300"><tspan x="0" y="0">Added to Wishlist</tspan></text>
          <ellipse id="Ellipse_153" data-name="Ellipse 153" cx="4.5" cy="5" rx="4.5" ry="5" transform="translate(359.634 506.817)" fill="#e3e3e3"/>
          <ellipse id="Ellipse_154" data-name="Ellipse 154" cx="4.5" cy="5.5" rx="4.5" ry="5.5" transform="translate(359.634 655.817)" fill="#e3e3e3"/>
          <rect id="Rectangle_453" data-name="Rectangle 453" width="103" height="18" transform="translate(187.634 443.817)" fill="#f2f2f2"/>
          <rect id="Rectangle_460" data-name="Rectangle 460" width="103" height="18" transform="translate(187.634 593.817)" fill="#f2f2f2"/>
          <rect id="Rectangle_454" data-name="Rectangle 454" width="183" height="5" transform="translate(187.634 473.817)" fill="#f2f2f2"/>
          <rect id="Rectangle_459" data-name="Rectangle 459" width="183" height="7" transform="translate(187.634 621.817)" fill="#f2f2f2"/>
          <rect id="Rectangle_455" data-name="Rectangle 455" width="183" height="4" transform="translate(187.634 482.817)" fill="#f2f2f2"/>
          <rect id="Rectangle_458" data-name="Rectangle 458" width="183" height="6" transform="translate(187.634 628.817)" fill="#f2f2f2"/>
          <rect id="Rectangle_456" data-name="Rectangle 456" width="183" height="7" transform="translate(187.634 487.817)" fill="#f2f2f2"/>
          <rect id="Rectangle_457" data-name="Rectangle 457" width="183" height="3" transform="translate(187.634 638.817)" fill="#f2f2f2"/>
          <circle id="Ellipse_115" data-name="Ellipse 115" cx="9" cy="9" r="9" transform="translate(187.634 413.817)" fill="#e3e3e3"/>
          <circle id="Ellipse_117" data-name="Ellipse 117" cx="9" cy="9" r="9" transform="translate(187.634 570.817)" fill="#e3e3e3"/>
          <circle id="Ellipse_116" data-name="Ellipse 116" cx="5" cy="5" r="5" transform="translate(187.634 504.817)" fill="#e3e3e3"/>
          <circle id="Ellipse_119" data-name="Ellipse 119" cx="5" cy="5" r="5" transform="translate(187.634 656.817)" fill="#e3e3e3"/>
          <circle id="Ellipse_118" data-name="Ellipse 118" cx="5" cy="5" r="5" transform="translate(219.634 504.817)" fill="#e3e3e3"/>
          <circle id="Ellipse_120" data-name="Ellipse 120" cx="5" cy="5" r="5" transform="translate(219.634 656.817)" fill="#e3e3e3"/>
        </g>
      </g>
      <g id="Mask_Group_26" data-name="Mask Group 26" transform="translate(1184.337 7581.183)" clip-path="url(#clip-path)">
        <g id="Group_287" data-name="Group 287" transform="translate(0 -1.117)">
          <path id="Mask-7" data-name="Mask" d="M365.2,397.247q0,179.417.011,358.834a37.072,37.072,0,0,1-5.695,20.259A37.479,37.479,0,0,1,332.8,793.907a33.41,33.41,0,0,1-5.4.391q-144.754.027-289.509.012A37.943,37.943,0,0,1,.481,762.395a42.042,42.042,0,0,1-.447-6.58Q0,671.318.016,586.821.016,312.653,0,38.489A37.322,37.322,0,0,1,5.137,18.92,37.1,37.1,0,0,1,31.525.621,33.548,33.548,0,0,1,37.239.036c12.6-.052,25.2-.036,37.8-.025,3.2,0,5.047,1.665,5.381,4.843.13,1.228.2,2.468.217,3.7a19.444,19.444,0,0,0,1.466,7.6c3.264,7.567,8.94,12.007,17.173,13.021a36.024,36.024,0,0,0,4.392.223q79.838.017,159.67.01a21.561,21.561,0,0,0,10.915-2.553,20.522,20.522,0,0,0,11-18.059c.057-1.462.1-2.927.243-4.38A4.873,4.873,0,0,1,290.1.018c.393-.03.791-.011,1.186-.011H327.05a37.906,37.906,0,0,1,37.27,29.834,61.234,61.234,0,0,1,.861,7.385c.087.893.016,1.807.016,2.711v357.31" transform="translate(0.005 1.117)" fill="none" stroke="#707070" stroke-width="2" opacity="0.2"/>
          <rect id="Rectangle_409" data-name="Rectangle 409" width="303" height="164" rx="5" transform="translate(32.663 118.933)" fill="#f2f2f2"/>
          <text id="Day_1_" data-name="Day 1 " transform="translate(32.663 406.933)" fill="#a5a5a5" font-size="10" font-family="Montserrat-Regular, Montserrat"><tspan x="0" y="0">Day 1</tspan></text>
          <text id="_25_Oct_2017" data-name="25 Oct 2017" transform="translate(33.663 458.933)" fill="#a5a5a5" font-size="15" font-family="Montserrat-Light, Montserrat" font-weight="300"><tspan x="0" y="0">25 Oct 2017</tspan></text>
          <text id="Date" transform="translate(59.663 494.933)" fill="#707070" font-size="11" font-family="Montserrat-Light, Montserrat" font-weight="300"><tspan x="0" y="0">Date</tspan></text>
          <text id="Place" transform="translate(59.663 517.933)" fill="#707070" font-size="9" font-family="Montserrat-Light, Montserrat" font-weight="300"><tspan x="0" y="0">Place</tspan></text>
          <text id="Day_2_" data-name="Day 2 " transform="translate(98.663 407.933)" fill="#a5a5a5" font-size="11" font-family="Montserrat-Bold, Montserrat" font-weight="700"><tspan x="0" y="0">Day 2</tspan></text>
          <text id="Day_3" data-name="Day 3" transform="translate(171.663 407.933)" fill="#a5a5a5" font-size="11" font-family="Montserrat-Regular, Montserrat"><tspan x="0" y="0">Day 3</tspan></text>
          <ellipse id="Ellipse_110" data-name="Ellipse 110" cx="21.5" cy="21" rx="21.5" ry="21" transform="translate(35.663 62.933)" fill="#e3e3e3"/>
          <circle id="Ellipse_110-2" data-name="Ellipse 110" cx="7" cy="7" r="7" transform="translate(312.663 80.933)" fill="#f2f2f2"/>
          <circle id="Ellipse_110-3" data-name="Ellipse 110" cx="7" cy="7" r="7" transform="translate(290.663 80.933)" fill="#f2f2f2"/>
          <circle id="Ellipse_110-4" data-name="Ellipse 110" cx="7" cy="7" r="7" transform="translate(267.663 80.933)" fill="#f2f2f2"/>
          <text id="User" transform="translate(87.663 90.933)" fill="#707070" font-size="14" font-family="Montserrat-Light, Montserrat" font-weight="300"><tspan x="0" y="0">User</tspan></text>
          <line id="Line_28" data-name="Line 28" x2="368.485" transform="translate(35.182 428.949)" fill="none" stroke="#707070" stroke-width="0.25"/>
          <rect id="Rectangle_410" data-name="Rectangle 410" width="116" height="90" rx="5" transform="translate(39.663 583.933)" fill="#f2f2f2"/>
          <rect id="Rectangle_411" data-name="Rectangle 411" width="117" height="90" rx="5" transform="translate(165.663 583.933)" fill="#f2f2f2"/>
          <rect id="Rectangle_412" data-name="Rectangle 412" width="118" height="90" rx="5" transform="translate(291.663 583.933)" fill="#f2f2f2"/>
          <g id="Mask_Group_25" data-name="Mask Group 25" transform="translate(0 0)" clip-path="url(#clip-path)">
            <ellipse id="Ellipse_116-2" data-name="Ellipse 116" cx="23" cy="21" rx="23" ry="21" transform="translate(35.663 728.933)" fill="#f2f2f2"/>
            <ellipse id="Ellipse_117-2" data-name="Ellipse 117" cx="22.5" cy="21" rx="22.5" ry="21" transform="translate(98.663 728.933)" fill="#f2f2f2"/>
            <ellipse id="Ellipse_118-2" data-name="Ellipse 118" cx="21" cy="21.5" rx="21" ry="21.5" transform="translate(165.663 726.933)" fill="#f2f2f2"/>
            <ellipse id="Ellipse_119-2" data-name="Ellipse 119" cx="22" cy="21" rx="22" ry="21" transform="translate(228.663 728.933)" fill="#f2f2f2"/>
            <ellipse id="Ellipse_120-2" data-name="Ellipse 120" cx="22" cy="21" rx="22" ry="21" transform="translate(293.663 728.933)" fill="#f2f2f2"/>
            <g id="Rectangle_413" data-name="Rectangle 413" transform="translate(-33.337 707.933)" fill="none" stroke="#707070" stroke-width="0.5">
              <rect width="461" height="141" stroke="none"/>
              <rect x="0.25" y="0.25" width="460.5" height="140.5" fill="none"/>
            </g>
            <path id="Path_309" data-name="Path 309" d="M257.169,348.395a4.762,4.762,0,1,1,4.762-4.762A4.762,4.762,0,0,1,257.169,348.395Zm0-8.507a3.745,3.745,0,1,0,3.745,3.745,3.745,3.745,0,0,0-3.745-3.745Z" transform="translate(58.284 398.062)" fill="#a5a5a5"/>
            <path id="Path_310" data-name="Path 310" d="M257.086,348.356a4.8,4.8,0,1,1,4.8-4.8A4.8,4.8,0,0,1,257.086,348.356Zm0-9.525a4.72,4.72,0,1,0,4.72,4.72A4.72,4.72,0,0,0,257.086,338.831Zm0,8.507a3.788,3.788,0,1,1,3.788-3.788A3.788,3.788,0,0,1,257.086,347.339Zm0-7.49a3.7,3.7,0,1,0,3.7,3.7,3.7,3.7,0,0,0-3.7-3.7Z" transform="translate(58.367 398.145)" fill="#a5a5a5"/>
            <path id="Path_311" data-name="Path 311" d="M256.978,380.453H239.1a.509.509,0,0,1-.509-.509,9.449,9.449,0,0,1,18.9,0A.509.509,0,0,1,256.978,380.453Zm-17.357-1.017h16.833a8.432,8.432,0,0,0-16.833,0Z" transform="translate(67.417 377.163)" fill="#a5a5a5"/>
            <path id="Path_312" data-name="Path 312" d="M256.9,380.412H239.015a.552.552,0,0,1-.552-.552,9.491,9.491,0,0,1,18.983,0A.552.552,0,0,1,256.9,380.412Zm-8.941-9.958a9.418,9.418,0,0,0-9.406,9.406.467.467,0,0,0,.467.467H256.9a.467.467,0,0,0,.467-.467,9.418,9.418,0,0,0-9.408-9.405Zm8.462,8.94H239.493v-.045a8.474,8.474,0,0,1,16.918,0Zm-16.833-.085h16.743a8.389,8.389,0,0,0-16.743,0Z" transform="translate(67.5 377.246)" fill="#a5a5a5"/>
            <path id="Path_313" data-name="Path 313" d="M414.683,359.578l-4.886-4.886a8.579,8.579,0,1,0-.846.846l4.886,4.885a.6.6,0,0,0,.423.179.588.588,0,0,0,.423-.179A.6.6,0,0,0,414.683,359.578Zm-18.727-10.507a7.37,7.37,0,1,1,7.37,7.37,7.37,7.37,0,0,1-7.37-7.37Z" transform="translate(-283.089 399.428)" fill="#a5a5a5"/>
            <path id="Path_314" data-name="Path 314" d="M555.408,358.312l-1.631-2.718a8.079,8.079,0,0,1-1.15-4.154V349.06a6.647,6.647,0,1,0-13.294,0v2.383a8.079,8.079,0,0,1-1.149,4.153l-1.632,2.719a.475.475,0,0,0,.408.719H555a.475.475,0,0,0,.408-.719Zm-17.612-.231,1.2-2a9.02,9.02,0,0,0,1.285-4.642V349.06a5.7,5.7,0,0,1,11.4,0v2.383a9.025,9.025,0,0,0,1.285,4.642l1.2,2Z" transform="translate(-296.406 398.151)" fill="#a5a5a5"/>
            <path id="Path_315" data-name="Path 315" d="M557.47,334.062a1.9,1.9,0,0,0-1.9,1.9v1.9a.475.475,0,1,0,.95,0v-1.9a.949.949,0,1,1,1.9,0v1.9a.475.475,0,0,0,.949,0v-1.9a1.9,1.9,0,0,0-1.9-1.9Z" transform="translate(-307.898 403.178)" fill="#a5a5a5"/>
            <path id="Path_316" data-name="Path 316" d="M558.807,382.019a.476.476,0,0,0-.821.481,1.424,1.424,0,1,1-2.467,0,.476.476,0,0,0-.821-.481,2.375,2.375,0,1,0,4.108,0Z" transform="translate(-307.18 374.449)" fill="#a5a5a5"/>
            <path id="Path_317" data-name="Path 317" d="M264.534,109.527a.419.419,0,0,0-.42.42v3.722a1.258,1.258,0,0,1-1.257,1.257H251.1a1.258,1.258,0,0,1-1.257-1.257V102.746a1.26,1.26,0,0,1,1.257-1.257h3.722a.419.419,0,1,0,0-.839H251.1a2.1,2.1,0,0,0-2.1,2.095v10.923a2.1,2.1,0,0,0,2.1,2.1h11.761a2.1,2.1,0,0,0,2.1-2.1v-3.722A.419.419,0,0,0,264.534,109.527Z" transform="translate(-71.449 641.092)" fill="#a5a5a5"/>
            <path id="Path_318" data-name="Path 318" d="M271.528,97.073a1.886,1.886,0,0,0-2.668,0l-7.481,7.481a.418.418,0,0,0-.112.184l-.984,3.55a.419.419,0,0,0,.516.516l3.551-.984a.416.416,0,0,0,.184-.112l7.481-7.481a1.888,1.888,0,0,0,0-2.668Zm-9.232,7.75,6.12-6.12,1.973,1.973-6.12,6.12Zm-.394.792,1.577,1.578-2.181.6Zm9.526-5.975-.447.447-1.968-1.976.447-.447a1.047,1.047,0,0,1,1.482,0l.492.491a1.05,1.05,0,0,1-.008,1.485Z" transform="translate(-78.271 643.59)" fill="#a5a5a5"/>
            <path id="Path_319" data-name="Path 319" d="M332.3,343.439l-9.547-8.865-9.546,8.865a.335.335,0,1,0,.453.488l1.1-1.026V354h15.977V342.9l1.105,1.026a.335.335,0,0,0,.453-.488Zm-11.544,9.9v-5.326a2,2,0,1,1,3.994,0v5.326Zm9.319,0h-4.66v-5.326a2.663,2.663,0,0,0-5.326,0v5.326h-4.66V342.281l7.323-6.8,7.323,6.8Z" transform="translate(-264.957 406.63)" fill="#a5a5a5"/>
            <path id="Path_320" data-name="Path 320" d="M330.69,353.924H314.635V342.87l-1.038.965a.391.391,0,0,1-.268.1.372.372,0,0,1-.239-.644l9.573-8.889.027.025,9.547,8.865a.372.372,0,1,1-.507.545l-1.038-.965Zm-15.977-.078h15.9V342.694l1.171,1.088a.3.3,0,0,0,.414-.016.294.294,0,0,0-.014-.414l-9.52-8.84-9.519,8.839a.294.294,0,0,0,.189.508.28.28,0,0,0,.211-.078l1.17-1.088Zm15.311-.587h-4.738V347.9a2.624,2.624,0,0,0-5.248,0v5.36H315.3V342.149l.012-.011,7.35-6.825.027.025,7.335,6.811Zm-4.66-.078h4.578v-11l-7.284-6.762-7.284,6.762v11h4.578v-5.286a2.7,2.7,0,1,1,5.4,0Zm-.67.078h-4.072V347.9a2.037,2.037,0,1,1,4.072,0Zm-3.994-.078h3.916v-5.286a1.958,1.958,0,0,0-3.916,0Z" transform="translate(-264.869 406.747)" fill="#a5a5a5"/>
            <path id="Path_321" data-name="Path 321" d="M330.644,353.848H314.51v-11l-.973.9a.421.421,0,0,1-.3.112.412.412,0,0,1-.265-.712l9.6-8.914.054.049,9.547,8.865a.411.411,0,0,1,.021.582.424.424,0,0,1-.582.021l-.973-.9Zm-15.977-.157h15.819V342.485l1.237,1.149a.261.261,0,0,0,.359-.013.255.255,0,0,0-.012-.36l-9.491-8.815-9.491,8.815a.256.256,0,0,0-.013.36.252.252,0,0,0,.176.08.238.238,0,0,0,.183-.068l1.237-1.149Zm15.311-.509h-4.817v-5.4a2.584,2.584,0,1,0-5.169,0v5.4h-4.817V342.015l7.4-6.872.054.049,7.348,6.823Zm-4.66-.157h4.5V342.081l-7.245-6.726-7.243,6.726v10.943h4.5v-5.248a2.741,2.741,0,0,1,5.483,0Zm-.67.157H320.5v-5.4a2.076,2.076,0,1,1,4.152,0Zm-3.994-.157h3.837v-5.248a1.918,1.918,0,0,0-3.837,0Z" transform="translate(-264.784 406.864)" fill="#a5a5a5"/>
            <path id="Path_322" data-name="Path 322" d="M330.6,353.768H314.384V342.825l-.907.842a.46.46,0,0,1-.319.12h0a.447.447,0,0,1-.292-.782l9.626-8.94.08.075L332.121,343a.447.447,0,0,1-.289.776h-.019a.447.447,0,0,1-.306-.112l-.907-.842Zm-16.134-.078h16.056V342.635l1.039.965a.372.372,0,1,0,.507-.544l-9.573-8.889-9.571,8.893a.372.372,0,0,0,.239.644h0a.378.378,0,0,0,.265-.1l1.038-.965Zm15.977-.078h-15.9V342.46l-1.17,1.086a.273.273,0,0,1-.213.078.288.288,0,0,1-.2-.093.3.3,0,0,1,.016-.415l9.519-8.84.027.025,9.491,8.815a.291.291,0,0,1-.19.506.307.307,0,0,1-.21-.076l-1.171-1.088Zm-15.819-.078h15.744V342.279l1.3,1.21a.213.213,0,0,0,.145.055h.009a.212.212,0,0,0,.138-.37l-9.467-8.79-9.466,8.79a.215.215,0,0,0-.011.3.212.212,0,0,0,.148.068.2.2,0,0,0,.155-.057l1.3-1.21Zm15.311-.43h-4.9V347.66a2.545,2.545,0,1,0-5.09,0V353.1h-4.9V341.881l.012-.011,7.428-6.9.08.074,7.361,6.835Zm-4.817-.078h4.739V341.916l-7.362-6.836-7.362,6.836v11.109h4.739v-5.36a2.624,2.624,0,1,1,5.248,0Zm-.508.078h-4.23V347.66a2.115,2.115,0,1,1,4.23,0Zm-4.152-.078h4.072v-5.36a2.037,2.037,0,1,0-4.072,0Zm9.319-.078H325.2v-5.286a2.7,2.7,0,1,0-5.4,0v5.286h-4.578v-11l.012-.011,7.27-6.751.027.025,7.258,6.739Zm-4.5-.078H329.7V341.985l-7.206-6.691-7.2,6.691v10.878h4.424v-5.208a2.781,2.781,0,1,1,5.562,0Zm-.823.078h-3.916v-5.286a1.958,1.958,0,1,1,3.916,0Zm-3.837-.078h3.759v-5.208a1.879,1.879,0,1,0-3.759,0Z" transform="translate(-264.698 406.982)" fill="#a5a5a5"/>
          </g>
          <rect id="Rectangle_414" data-name="Rectangle 414" width="161" height="26" transform="translate(33.663 316.933)" fill="#e3e3e3"/>
          <rect id="Rectangle_415" data-name="Rectangle 415" width="278" height="15" transform="translate(33.663 353.933)" fill="#f2f2f2"/>
          <rect id="Rectangle_416" data-name="Rectangle 416" width="278" height="14" transform="translate(33.663 529.933)" fill="#f2f2f2"/>
          <rect id="Rectangle_416-2" data-name="Rectangle 416" width="278" height="14" transform="translate(33.663 552.933)" fill="#f2f2f2"/>
          <circle id="Ellipse_110-5" data-name="Ellipse 110" cx="7" cy="7" r="7" transform="translate(35.663 481.934)" fill="#f2f2f2"/>
          <circle id="Ellipse_110-6" data-name="Ellipse 110" cx="7" cy="7" r="7" transform="translate(35.663 506.934)" fill="#f2f2f2"/>
        </g>
      </g>
      <path id="Mask-8" data-name="Mask" d="M365.194,397.246q0,179.417.011,358.834a37.073,37.073,0,0,1-5.695,20.259,37.479,37.479,0,0,1-26.716,17.567,33.438,33.438,0,0,1-5.4.391q-144.754.027-289.508.012A37.943,37.943,0,0,1,.481,762.394a42.039,42.039,0,0,1-.447-6.58Q0,671.318.016,586.821.016,312.653,0,38.489A37.322,37.322,0,0,1,5.137,18.92,37.1,37.1,0,0,1,31.525.621,33.547,33.547,0,0,1,37.239.036c12.6-.052,25.2-.036,37.8-.025,3.2,0,5.047,1.665,5.381,4.843.13,1.228.2,2.468.217,3.7a19.444,19.444,0,0,0,1.466,7.6c3.264,7.567,8.94,12.007,17.172,13.021a36.024,36.024,0,0,0,4.392.223q79.838.017,159.67.01a21.561,21.561,0,0,0,10.915-2.553,20.522,20.522,0,0,0,11-18.059c.057-1.462.1-2.927.243-4.38A4.873,4.873,0,0,1,290.1.018c.393-.03.791-.011,1.186-.011h35.765a37.906,37.906,0,0,1,37.269,29.834,61.246,61.246,0,0,1,.861,7.385c.087.893.016,1.807.016,2.711V397.246" transform="translate(772.821 7581.183)" fill="none" stroke="#707070" stroke-width="2" opacity="0.2"/>
      <path id="Mask-9" data-name="Mask" d="M365.194,397.246q0,179.417.011,358.834a37.073,37.073,0,0,1-5.695,20.259,37.479,37.479,0,0,1-26.716,17.567,33.438,33.438,0,0,1-5.4.391q-144.754.027-289.508.012A37.943,37.943,0,0,1,.481,762.394a42.039,42.039,0,0,1-.447-6.58Q0,671.318.016,586.821.016,312.653,0,38.489A37.322,37.322,0,0,1,5.137,18.92,37.1,37.1,0,0,1,31.525.621,33.547,33.547,0,0,1,37.239.036c12.6-.052,25.2-.036,37.8-.025,3.2,0,5.047,1.665,5.381,4.843.13,1.228.2,2.468.217,3.7a19.444,19.444,0,0,0,1.466,7.6c3.264,7.567,8.94,12.007,17.172,13.021a36.024,36.024,0,0,0,4.392.223q79.838.017,159.67.01a21.561,21.561,0,0,0,10.915-2.553,20.522,20.522,0,0,0,11-18.059c.057-1.462.1-2.927.243-4.38A4.873,4.873,0,0,1,290.1.018c.393-.03.791-.011,1.186-.011h35.765a37.906,37.906,0,0,1,37.269,29.834,61.246,61.246,0,0,1,.861,7.385c.087.893.016,1.807.016,2.711V397.246" transform="translate(-57.944 7581.183)" fill="none" stroke="#707070" stroke-width="2" opacity="0.2"/>
      <g id="Mask_Group_20" data-name="Mask Group 20" transform="translate(-57.949 7581.183)" clip-path="url(#clip-path-4)">
        <ellipse id="Ellipse_66" data-name="Ellipse 66" cx="23" cy="21" rx="23" ry="21" transform="translate(35.949 728.817)" fill="#f2f2f2"/>
        <ellipse id="Ellipse_67" data-name="Ellipse 67" cx="21.5" cy="21" rx="21.5" ry="21" transform="translate(99.949 728.817)" fill="#f2f2f2"/>
        <ellipse id="Ellipse_68" data-name="Ellipse 68" cx="22.5" cy="21" rx="22.5" ry="21" transform="translate(164.949 726.817)" fill="#f2f2f2"/>
        <ellipse id="Ellipse_69" data-name="Ellipse 69" cx="21.5" cy="21" rx="21.5" ry="21" transform="translate(228.949 728.817)" fill="#f2f2f2"/>
        <ellipse id="Ellipse_70" data-name="Ellipse 70" cx="22.5" cy="21" rx="22.5" ry="21" transform="translate(293.949 728.817)" fill="#f2f2f2"/>
        <g id="Rectangle_311" data-name="Rectangle 311" transform="translate(-35.051 706.817)" fill="none" stroke="#707070" stroke-width="0.5">
          <rect width="463" height="143" stroke="none"/>
          <rect x="0.25" y="0.25" width="462.5" height="142.5" fill="none"/>
        </g>
        <path id="Path_239" data-name="Path 239" d="M257.169,348.395a4.762,4.762,0,1,1,4.762-4.762A4.762,4.762,0,0,1,257.169,348.395Zm0-8.508a3.745,3.745,0,1,0,3.745,3.745,3.745,3.745,0,0,0-3.745-3.745Z" transform="translate(58.284 398.062)" fill="#a5a5a5"/>
        <path id="Path_240" data-name="Path 240" d="M257.086,348.356a4.8,4.8,0,1,1,4.8-4.8A4.8,4.8,0,0,1,257.086,348.356Zm0-9.525a4.72,4.72,0,1,0,4.72,4.72A4.72,4.72,0,0,0,257.086,338.831Zm0,8.507a3.788,3.788,0,1,1,3.788-3.787A3.788,3.788,0,0,1,257.086,347.339Zm0-7.49a3.7,3.7,0,1,0,3.7,3.7,3.7,3.7,0,0,0-3.7-3.7Z" transform="translate(58.367 398.145)" fill="#a5a5a5"/>
        <path id="Path_241" data-name="Path 241" d="M256.978,380.453H239.1a.509.509,0,0,1-.509-.509,9.449,9.449,0,1,1,18.9,0A.509.509,0,0,1,256.978,380.453Zm-17.357-1.017h16.833a8.432,8.432,0,0,0-16.833,0Z" transform="translate(67.416 377.163)" fill="#a5a5a5"/>
        <path id="Path_242" data-name="Path 242" d="M256.9,380.412h-17.88a.552.552,0,0,1-.552-.552,9.491,9.491,0,0,1,18.983,0A.552.552,0,0,1,256.9,380.412Zm-8.941-9.958a9.417,9.417,0,0,0-9.406,9.406.467.467,0,0,0,.467.467H256.9a.467.467,0,0,0,.467-.467,9.417,9.417,0,0,0-9.408-9.405Zm8.462,8.94H239.492v-.045a8.474,8.474,0,0,1,16.918,0Zm-16.833-.085h16.743a8.389,8.389,0,0,0-16.743,0Z" transform="translate(67.499 377.245)" fill="#a5a5a5"/>
        <path id="Path_243" data-name="Path 243" d="M414.682,359.578l-4.886-4.886a8.579,8.579,0,1,0-.846.846l4.886,4.885a.6.6,0,0,0,.423.179.588.588,0,0,0,.423-.179A.6.6,0,0,0,414.682,359.578Zm-18.727-10.507a7.37,7.37,0,1,1,7.37,7.37,7.37,7.37,0,0,1-7.37-7.37Z" transform="translate(-283.089 399.428)" fill="#a5a5a5"/>
        <path id="Path_244" data-name="Path 244" d="M555.407,358.312l-1.631-2.718a8.081,8.081,0,0,1-1.15-4.154V349.06a6.647,6.647,0,1,0-13.294,0v2.383a8.081,8.081,0,0,1-1.149,4.153l-1.632,2.719a.475.475,0,0,0,.408.719H555a.475.475,0,0,0,.407-.719Zm-17.611-.231,1.2-2a9.018,9.018,0,0,0,1.285-4.642V349.06a5.7,5.7,0,0,1,11.4,0v2.383a9.025,9.025,0,0,0,1.285,4.642l1.2,2Z" transform="translate(-296.407 398.151)" fill="#a5a5a5"/>
        <path id="Path_245" data-name="Path 245" d="M557.47,334.062a1.9,1.9,0,0,0-1.9,1.9v1.9a.475.475,0,0,0,.95,0v-1.9a.949.949,0,1,1,1.9,0v1.9a.475.475,0,0,0,.949,0v-1.9a1.9,1.9,0,0,0-1.9-1.9Z" transform="translate(-307.898 403.178)" fill="#a5a5a5"/>
        <path id="Path_246" data-name="Path 246" d="M558.807,382.019a.476.476,0,1,0-.821.481,1.424,1.424,0,1,1-2.466,0,.476.476,0,0,0-.821-.481,2.375,2.375,0,1,0,4.108,0Z" transform="translate(-307.18 374.448)" fill="#a5a5a5"/>
        <path id="Path_247" data-name="Path 247" d="M264.534,109.527a.419.419,0,0,0-.42.42v3.722a1.258,1.258,0,0,1-1.257,1.257H251.1a1.258,1.258,0,0,1-1.257-1.257V102.746a1.26,1.26,0,0,1,1.257-1.257h3.722a.419.419,0,1,0,0-.839H251.1a2.1,2.1,0,0,0-2.1,2.095v10.923a2.1,2.1,0,0,0,2.1,2.1h11.761a2.1,2.1,0,0,0,2.1-2.1v-3.722A.419.419,0,0,0,264.534,109.527Z" transform="translate(-71.449 641.092)" fill="#a5a5a5"/>
        <path id="Path_248" data-name="Path 248" d="M271.528,97.073a1.886,1.886,0,0,0-2.668,0l-7.481,7.481a.418.418,0,0,0-.112.184l-.984,3.55a.419.419,0,0,0,.516.516l3.551-.984a.416.416,0,0,0,.184-.112l7.481-7.481a1.888,1.888,0,0,0,0-2.668Zm-9.232,7.75,6.12-6.12,1.973,1.973-6.12,6.12Zm-.394.792,1.577,1.578-2.181.6Zm9.526-5.975-.447.447-1.968-1.976.447-.447a1.047,1.047,0,0,1,1.482,0l.492.491a1.05,1.05,0,0,1-.008,1.485Z" transform="translate(-78.271 643.589)" fill="#a5a5a5"/>
        <rect id="Rectangle_312" data-name="Rectangle 312" width="3" height="5" transform="translate(329.949 39.817)" fill="#efecd7"/>
        <rect id="Rectangle_313" data-name="Rectangle 313" width="6" height="5" transform="translate(303.949 46.817)" fill="#efecd7"/>
        <ellipse id="Ellipse_71" data-name="Ellipse 71" cx="22.5" cy="23" rx="22.5" ry="23" transform="translate(20.949 166.817)" fill="#e3e3e3"/>
        <ellipse id="Ellipse_72" data-name="Ellipse 72" cx="22.5" cy="20.5" rx="22.5" ry="20.5" transform="translate(20.949 484.817)" fill="#e3e3e3"/>
        <rect id="Rectangle_314" data-name="Rectangle 314" width="136" height="88" transform="translate(20.949 230.817)" fill="#f2f2f2"/>
        <rect id="Rectangle_315" data-name="Rectangle 315" width="136" height="85" transform="translate(20.949 544.817)" fill="#f2f2f2"/>
        <rect id="Rectangle_316" data-name="Rectangle 316" width="138" height="88" transform="translate(167.949 230.817)" fill="#f2f2f2"/>
        <rect id="Rectangle_317" data-name="Rectangle 317" width="138" height="85" transform="translate(167.949 544.817)" fill="#f2f2f2"/>
        <rect id="Rectangle_318" data-name="Rectangle 318" width="137" height="88" transform="translate(315.949 230.817)" fill="#f2f2f2"/>
        <rect id="Rectangle_319" data-name="Rectangle 319" width="137" height="85" transform="translate(315.949 544.817)" fill="#f2f2f2"/>
        <rect id="Rectangle_320" data-name="Rectangle 320" width="119" height="29" transform="translate(20.949 75.817)" fill="#f2f2f2"/>
        <circle id="Ellipse_73" data-name="Ellipse 73" cx="7.5" cy="7.5" r="7.5" transform="translate(19.949 394.817)" fill="#f2f2f2"/>
        <circle id="Ellipse_75" data-name="Ellipse 75" cx="7.5" cy="7.5" r="7.5" transform="translate(311.949 397.817)" fill="#f2f2f2"/>
        <circle id="Ellipse_75-2" data-name="Ellipse 75" cx="7.5" cy="7.5" r="7.5" transform="translate(70.949 397.817)" fill="#f2f2f2"/>
        <text id="_2_likes" data-name="2 likes" transform="translate(38.949 402.817)" fill="#a5a5a5" font-size="5" font-family="Gilroy-Light, Gilroy" font-weight="300"><tspan x="0" y="0">2 likes</tspan></text>
        <text id="_5_comments" data-name="5 comments" transform="translate(92.949 407.817)" fill="#a5a5a5" font-size="7" font-family="Gilroy-Light, Gilroy" font-weight="300"><tspan x="0" y="0">5 comments</tspan></text>
        <text id="Add_to_Wishlist" data-name="Add to Wishlist" transform="translate(257.949 408.817)" fill="#a5a5a5" font-size="7" font-family="Gilroy-Light, Gilroy" font-weight="300"><tspan x="0" y="0">Add to Wishlist</tspan></text>
        <rect id="Rectangle_321" data-name="Rectangle 321" width="127" height="19" transform="translate(20.949 328.817)" fill="#f2f2f2"/>
        <rect id="Rectangle_322" data-name="Rectangle 322" width="127" height="21" transform="translate(20.949 641.817)" fill="#f2f2f2"/>
        <rect id="Rectangle_323" data-name="Rectangle 323" width="330" height="10" transform="translate(20.949 351.817)" fill="#f2f2f2"/>
        <rect id="Rectangle_324" data-name="Rectangle 324" width="330" height="14" transform="translate(20.949 672.817)" fill="#f2f2f2"/>
        <rect id="Rectangle_325" data-name="Rectangle 325" width="330" height="10" transform="translate(20.949 367.817)" fill="#f2f2f2"/>
        <path id="Path_249" data-name="Path 249" d="M332.3,343.439l-9.547-8.865-9.546,8.865a.335.335,0,1,0,.453.488l1.1-1.026V354h15.977V342.9l1.105,1.026a.335.335,0,0,0,.453-.488Zm-11.544,9.9v-5.326a2,2,0,1,1,3.994,0v5.326Zm9.319,0h-4.66v-5.326a2.663,2.663,0,0,0-5.326,0v5.326h-4.66V342.281l7.323-6.8,7.323,6.8Z" transform="translate(-264.957 406.63)" fill="#a5a5a5"/>
        <path id="Path_250" data-name="Path 250" d="M330.69,353.924H314.635V342.87l-1.038.965a.392.392,0,0,1-.268.1.372.372,0,0,1-.239-.644l9.573-8.889.027.025,9.547,8.865a.372.372,0,1,1-.507.545l-1.038-.965Zm-15.977-.078h15.9V342.694l1.171,1.088a.3.3,0,0,0,.414-.016.294.294,0,0,0-.014-.414l-9.52-8.84-9.519,8.839a.294.294,0,0,0,.189.508.281.281,0,0,0,.211-.078l1.17-1.088Zm15.311-.587h-4.738V347.9a2.624,2.624,0,0,0-5.248,0v5.36H315.3V342.149l.012-.011,7.35-6.825.027.024,7.335,6.811Zm-4.66-.078h4.578v-11l-7.284-6.762-7.284,6.762v11h4.578v-5.286a2.7,2.7,0,1,1,5.4,0Zm-.67.078h-4.072V347.9a2.037,2.037,0,1,1,4.072,0Zm-3.994-.078h3.916v-5.286a1.958,1.958,0,0,0-3.916,0Z" transform="translate(-264.87 406.747)" fill="#a5a5a5"/>
        <path id="Path_251" data-name="Path 251" d="M330.644,353.848H314.51v-11l-.973.9a.421.421,0,0,1-.3.112.412.412,0,0,1-.265-.712l9.6-8.914.054.049,9.547,8.865a.411.411,0,0,1,.021.582.424.424,0,0,1-.582.021l-.973-.9Zm-15.977-.157h15.819V342.485l1.237,1.149a.261.261,0,0,0,.36-.013.255.255,0,0,0-.012-.36l-9.491-8.815-9.491,8.815a.256.256,0,0,0-.013.36.253.253,0,0,0,.176.08.238.238,0,0,0,.183-.068l1.237-1.149Zm15.311-.509h-4.817v-5.4a2.584,2.584,0,1,0-5.169,0v5.4h-4.817V342.015l7.4-6.872.054.049,7.348,6.823Zm-4.66-.157h4.5V342.081l-7.245-6.726-7.244,6.726v10.943h4.5v-5.248a2.741,2.741,0,1,1,5.482,0Zm-.67.157H320.5v-5.4a2.076,2.076,0,1,1,4.152,0Zm-3.994-.157h3.837v-5.248a1.918,1.918,0,0,0-3.837,0Z" transform="translate(-264.784 406.864)" fill="#a5a5a5"/>
        <path id="Path_252" data-name="Path 252" d="M330.6,353.768H314.384V342.825l-.907.842a.461.461,0,0,1-.319.12h0a.447.447,0,0,1-.291-.782l9.626-8.94.08.075L332.121,343a.447.447,0,0,1-.289.776h-.019a.447.447,0,0,1-.306-.112l-.907-.842Zm-16.134-.078h16.056V342.635l1.039.965a.372.372,0,1,0,.507-.544l-9.573-8.889-9.571,8.893a.372.372,0,0,0,.239.644h0a.378.378,0,0,0,.265-.1l1.038-.965Zm15.977-.078h-15.9V342.46l-1.17,1.086a.273.273,0,0,1-.213.078.288.288,0,0,1-.2-.093.3.3,0,0,1,.016-.415l9.519-8.84.027.025,9.491,8.815a.291.291,0,0,1-.19.506.307.307,0,0,1-.21-.076l-1.171-1.088Zm-15.819-.078h15.744V342.279l1.3,1.21a.213.213,0,0,0,.145.055h.009a.212.212,0,0,0,.138-.37l-9.467-8.79-9.466,8.79a.215.215,0,0,0-.011.3.212.212,0,0,0,.148.068.2.2,0,0,0,.155-.057l1.3-1.21Zm15.311-.43h-4.9V347.66a2.545,2.545,0,1,0-5.09,0V353.1h-4.9V341.881l.012-.011,7.428-6.9.08.074,7.361,6.835Zm-4.817-.078h4.739V341.916l-7.362-6.836-7.362,6.836v11.109h4.739v-5.36a2.624,2.624,0,1,1,5.248,0Zm-.508.078h-4.23V347.66a2.115,2.115,0,1,1,4.23,0Zm-4.152-.078h4.072v-5.36a2.037,2.037,0,1,0-4.072,0Zm9.319-.078H325.2v-5.286a2.7,2.7,0,0,0-5.4,0v5.286h-4.578v-11l.012-.011,7.27-6.751.027.025,7.258,6.739Zm-4.5-.078H329.7V341.985l-7.206-6.691-7.2,6.691v10.878h4.424v-5.208a2.781,2.781,0,1,1,5.562,0Zm-.823.078h-3.916v-5.286a1.958,1.958,0,1,1,3.916,0Zm-3.837-.078h3.759v-5.208a1.879,1.879,0,1,0-3.759,0Z" transform="translate(-264.699 406.981)" fill="#a5a5a5"/>
        <rect id="Rectangle_415-2" data-name="Rectangle 415" width="45" height="14" transform="translate(76.949 176.817)" fill="#f2f2f2"/>
        <rect id="Rectangle_417" data-name="Rectangle 417" width="45" height="12" transform="translate(76.949 495.817)" fill="#f2f2f2"/>
        <rect id="Rectangle_420" data-name="Rectangle 420" width="50" height="12" transform="translate(280.949 495.817)" fill="#f2f2f2"/>
        <rect id="Rectangle_421" data-name="Rectangle 421" width="50" height="12" transform="translate(280.949 175.817)" fill="#f2f2f2"/>
        <rect id="Rectangle_416-3" data-name="Rectangle 416" width="45" height="4" transform="translate(77.949 193.817)" fill="#f2f2f2"/>
        <rect id="Rectangle_418" data-name="Rectangle 418" width="45" height="4" transform="translate(77.949 510.817)" fill="#f2f2f2"/>
      </g>
      <g id="Mask_Group_22" data-name="Mask Group 22" transform="translate(355.433 7581.183)" clip-path="url(#clip-path-4)">
        <g id="Group_285" data-name="Group 285" transform="translate(-36.681 0)">
          <rect id="Rectangle_362" data-name="Rectangle 362" width="137" height="183" transform="translate(71.248 621.817)" fill="#f2f2f2"/>
          <rect id="Rectangle_363" data-name="Rectangle 363" width="141" height="183" transform="translate(230.248 621.817)" fill="#f2f2f2"/>
          <g id="Rectangle_364" data-name="Rectangle 364" transform="translate(0.248 706.817)" fill="#fff" stroke="#707070" stroke-width="0.5">
            <rect width="464" height="143" stroke="none"/>
            <rect x="0.25" y="0.25" width="463.5" height="142.5" fill="none"/>
          </g>
          <path id="Mask-10" data-name="Mask" d="M365.194,397.246q0,179.417.011,358.834a37.073,37.073,0,0,1-5.695,20.259,37.479,37.479,0,0,1-26.716,17.567,33.438,33.438,0,0,1-5.4.391q-144.754.027-289.508.012A37.943,37.943,0,0,1,.481,762.394a42.039,42.039,0,0,1-.447-6.58Q0,671.318.016,586.821.016,312.653,0,38.489A37.322,37.322,0,0,1,5.137,18.92,37.1,37.1,0,0,1,31.525.621,33.547,33.547,0,0,1,37.239.036c12.6-.052,25.2-.036,37.8-.025,3.2,0,5.047,1.665,5.381,4.843.13,1.228.2,2.468.217,3.7a19.444,19.444,0,0,0,1.466,7.6c3.264,7.567,8.94,12.007,17.172,13.021a36.024,36.024,0,0,0,4.392.223q79.838.017,159.67.01a21.561,21.561,0,0,0,10.915-2.553,20.522,20.522,0,0,0,11-18.059c.057-1.462.1-2.927.243-4.38A4.873,4.873,0,0,1,290.1.018c.393-.03.791-.011,1.186-.011h35.765a37.906,37.906,0,0,1,37.269,29.834,61.246,61.246,0,0,1,.861,7.385c.087.893.016,1.807.016,2.711V397.246" transform="translate(36.686 0)" fill="none" stroke="#707070" stroke-width="2" opacity="0.2"/>
          <circle id="Ellipse_91" data-name="Ellipse 91" cx="21" cy="21" r="21" transform="translate(74.248 728.817)" fill="#f2f2f2"/>
          <ellipse id="Ellipse_92" data-name="Ellipse 92" cx="23.5" cy="21" rx="23.5" ry="21" transform="translate(134.248 728.817)" fill="#f2f2f2"/>
          <ellipse id="Ellipse_93" data-name="Ellipse 93" cx="22" cy="21" rx="22" ry="21" transform="translate(201.248 726.817)" fill="#f2f2f2"/>
          <ellipse id="Ellipse_94" data-name="Ellipse 94" cx="22.5" cy="21" rx="22.5" ry="21" transform="translate(264.248 728.817)" fill="#f2f2f2"/>
          <ellipse id="Ellipse_95" data-name="Ellipse 95" cx="20" cy="21" rx="20" ry="21" transform="translate(334.248 728.817)" fill="#f2f2f2"/>
          <path id="Path_281" data-name="Path 281" d="M257.169,348.395a4.762,4.762,0,1,1,4.762-4.762A4.762,4.762,0,0,1,257.169,348.395Zm0-8.508a3.745,3.745,0,1,0,3.745,3.745,3.745,3.745,0,0,0-3.745-3.745Z" transform="translate(94.964 398.062)" fill="#a5a5a5"/>
          <path id="Path_282" data-name="Path 282" d="M257.086,348.356a4.8,4.8,0,1,1,4.8-4.8A4.8,4.8,0,0,1,257.086,348.356Zm0-9.525a4.72,4.72,0,1,0,4.72,4.72A4.72,4.72,0,0,0,257.086,338.831Zm0,8.507a3.788,3.788,0,1,1,3.788-3.787A3.788,3.788,0,0,1,257.086,347.339Zm0-7.49a3.7,3.7,0,1,0,3.7,3.7,3.7,3.7,0,0,0-3.7-3.7Z" transform="translate(95.047 398.145)" fill="#a5a5a5"/>
          <path id="Path_283" data-name="Path 283" d="M256.978,380.453H239.1a.509.509,0,0,1-.509-.509,9.449,9.449,0,1,1,18.9,0A.509.509,0,0,1,256.978,380.453Zm-17.357-1.017h16.833a8.432,8.432,0,0,0-16.833,0Z" transform="translate(104.097 377.163)" fill="#a5a5a5"/>
          <path id="Path_284" data-name="Path 284" d="M256.9,380.412h-17.88a.552.552,0,0,1-.552-.552,9.491,9.491,0,0,1,18.983,0A.552.552,0,0,1,256.9,380.412Zm-8.941-9.958a9.417,9.417,0,0,0-9.406,9.406.467.467,0,0,0,.467.467H256.9a.467.467,0,0,0,.467-.467,9.417,9.417,0,0,0-9.408-9.405Zm8.462,8.94H239.492v-.045a8.474,8.474,0,0,1,16.918,0Zm-16.833-.085h16.743a8.389,8.389,0,0,0-16.743,0Z" transform="translate(104.18 377.245)" fill="#a5a5a5"/>
          <path id="Path_285" data-name="Path 285" d="M414.682,359.578l-4.886-4.886a8.579,8.579,0,1,0-.846.846l4.886,4.885a.6.6,0,0,0,.423.179.588.588,0,0,0,.423-.179A.6.6,0,0,0,414.682,359.578Zm-18.727-10.507a7.37,7.37,0,1,1,7.37,7.37,7.37,7.37,0,0,1-7.37-7.37Z" transform="translate(-246.409 399.428)" fill="#a5a5a5"/>
          <path id="Path_286" data-name="Path 286" d="M555.407,358.312l-1.631-2.718a8.081,8.081,0,0,1-1.15-4.154V349.06a6.647,6.647,0,1,0-13.294,0v2.383a8.081,8.081,0,0,1-1.149,4.153l-1.632,2.719a.475.475,0,0,0,.408.719H555a.475.475,0,0,0,.407-.719Zm-17.611-.231,1.2-2a9.018,9.018,0,0,0,1.285-4.642V349.06a5.7,5.7,0,0,1,11.4,0v2.383a9.025,9.025,0,0,0,1.285,4.642l1.2,2Z" transform="translate(-259.725 398.151)" fill="#a5a5a5"/>
          <path id="Path_287" data-name="Path 287" d="M557.47,334.062a1.9,1.9,0,0,0-1.9,1.9v1.9a.475.475,0,0,0,.95,0v-1.9a.949.949,0,1,1,1.9,0v1.9a.475.475,0,0,0,.949,0v-1.9a1.9,1.9,0,0,0-1.9-1.9Z" transform="translate(-271.217 403.178)" fill="#a5a5a5"/>
          <path id="Path_288" data-name="Path 288" d="M558.807,382.019a.476.476,0,1,0-.821.481,1.424,1.424,0,1,1-2.466,0,.476.476,0,0,0-.821-.481,2.375,2.375,0,1,0,4.108,0Z" transform="translate(-270.5 374.448)" fill="#a5a5a5"/>
          <path id="Path_289" data-name="Path 289" d="M264.534,109.527a.419.419,0,0,0-.42.42v3.722a1.258,1.258,0,0,1-1.257,1.257H251.1a1.258,1.258,0,0,1-1.257-1.257V102.746a1.26,1.26,0,0,1,1.257-1.257h3.722a.419.419,0,1,0,0-.839H251.1a2.1,2.1,0,0,0-2.1,2.095v10.923a2.1,2.1,0,0,0,2.1,2.1h11.761a2.1,2.1,0,0,0,2.1-2.1v-3.722A.419.419,0,0,0,264.534,109.527Z" transform="translate(-34.769 641.092)" fill="#a5a5a5"/>
          <path id="Path_290" data-name="Path 290" d="M271.528,97.073a1.886,1.886,0,0,0-2.668,0l-7.481,7.481a.418.418,0,0,0-.112.184l-.984,3.55a.419.419,0,0,0,.516.516l3.551-.984a.416.416,0,0,0,.184-.112l7.481-7.481a1.888,1.888,0,0,0,0-2.668Zm-9.232,7.75,6.12-6.12,1.973,1.973-6.12,6.12Zm-.394.792,1.577,1.578-2.181.6Zm9.526-5.975-.447.447-1.968-1.976.447-.447a1.047,1.047,0,0,1,1.482,0l.492.491a1.05,1.05,0,0,1-.008,1.485Z" transform="translate(-41.59 643.589)" fill="#a5a5a5"/>
          <rect id="Rectangle_365" data-name="Rectangle 365" width="6" height="5" transform="translate(365.248 39.817)" fill="#efecd7"/>
          <rect id="Rectangle_366" data-name="Rectangle 366" width="4" height="5" transform="translate(341.248 46.817)" fill="#efecd7"/>
          <rect id="Rectangle_367" data-name="Rectangle 367" width="118" height="29" transform="translate(61.248 75.817)" fill="#f2f2f2"/>
          <path id="Path_291" data-name="Path 291" d="M332.3,343.439l-9.547-8.865-9.546,8.865a.335.335,0,1,0,.453.488l1.1-1.026V354h15.977V342.9l1.105,1.026a.335.335,0,0,0,.453-.488Zm-11.544,9.9v-5.326a2,2,0,1,1,3.994,0v5.326Zm9.319,0h-4.66v-5.326a2.663,2.663,0,0,0-5.326,0v5.326h-4.66V342.281l7.323-6.8,7.323,6.8Z" transform="translate(-228.276 406.63)" fill="#a5a5a5"/>
          <path id="Path_292" data-name="Path 292" d="M330.69,353.924H314.635V342.87l-1.038.965a.392.392,0,0,1-.268.1.372.372,0,0,1-.239-.644l9.573-8.889.027.025,9.547,8.865a.372.372,0,1,1-.507.545l-1.038-.965Zm-15.977-.078h15.9V342.694l1.171,1.088a.3.3,0,0,0,.414-.016.294.294,0,0,0-.014-.414l-9.52-8.84-9.519,8.839a.294.294,0,0,0,.189.508.281.281,0,0,0,.211-.078l1.17-1.088Zm15.311-.587h-4.738V347.9a2.624,2.624,0,0,0-5.248,0v5.36H315.3V342.149l.012-.011,7.35-6.825.027.024,7.335,6.811Zm-4.66-.078h4.578v-11l-7.284-6.762-7.284,6.762v11h4.578v-5.286a2.7,2.7,0,1,1,5.4,0Zm-.67.078h-4.072V347.9a2.037,2.037,0,1,1,4.072,0Zm-3.994-.078h3.916v-5.286a1.958,1.958,0,0,0-3.916,0Z" transform="translate(-228.188 406.747)" fill="#a5a5a5"/>
          <path id="Path_293" data-name="Path 293" d="M330.644,353.848H314.51v-11l-.973.9a.421.421,0,0,1-.3.112.412.412,0,0,1-.265-.712l9.6-8.914.054.049,9.547,8.865a.411.411,0,0,1,.021.582.424.424,0,0,1-.582.021l-.973-.9Zm-15.977-.157h15.819V342.485l1.237,1.149a.261.261,0,0,0,.36-.013.255.255,0,0,0-.012-.36l-9.491-8.815-9.491,8.815a.256.256,0,0,0-.013.36.253.253,0,0,0,.176.08.238.238,0,0,0,.183-.068l1.237-1.149Zm15.311-.509h-4.817v-5.4a2.584,2.584,0,1,0-5.169,0v5.4h-4.817V342.015l7.4-6.872.054.049,7.348,6.823Zm-4.66-.157h4.5V342.081l-7.245-6.726-7.244,6.726v10.943h4.5v-5.248a2.741,2.741,0,1,1,5.482,0Zm-.67.157H320.5v-5.4a2.076,2.076,0,1,1,4.152,0Zm-3.994-.157h3.837v-5.248a1.918,1.918,0,0,0-3.837,0Z" transform="translate(-228.104 406.864)" fill="#a5a5a5"/>
          <path id="Path_294" data-name="Path 294" d="M330.6,353.768H314.384V342.825l-.907.842a.461.461,0,0,1-.319.12h0a.447.447,0,0,1-.291-.782l9.626-8.94.08.075L332.121,343a.447.447,0,0,1-.289.776h-.019a.447.447,0,0,1-.306-.112l-.907-.842Zm-16.134-.078h16.056V342.635l1.039.965a.372.372,0,1,0,.507-.544l-9.573-8.889-9.571,8.893a.372.372,0,0,0,.239.644h0a.378.378,0,0,0,.265-.1l1.038-.965Zm15.977-.078h-15.9V342.46l-1.17,1.086a.273.273,0,0,1-.213.078.288.288,0,0,1-.2-.093.3.3,0,0,1,.016-.415l9.519-8.84.027.025,9.491,8.815a.291.291,0,0,1-.19.506.307.307,0,0,1-.21-.076l-1.171-1.088Zm-15.819-.078h15.744V342.279l1.3,1.21a.213.213,0,0,0,.145.055h.009a.212.212,0,0,0,.138-.37l-9.467-8.79-9.466,8.79a.215.215,0,0,0-.011.3.212.212,0,0,0,.148.068.2.2,0,0,0,.155-.057l1.3-1.21Zm15.311-.43h-4.9V347.66a2.545,2.545,0,1,0-5.09,0V353.1h-4.9V341.881l.012-.011,7.428-6.9.08.074,7.361,6.835Zm-4.817-.078h4.739V341.916l-7.362-6.836-7.362,6.836v11.109h4.739v-5.36a2.624,2.624,0,1,1,5.248,0Zm-.508.078h-4.23V347.66a2.115,2.115,0,1,1,4.23,0Zm-4.152-.078h4.072v-5.36a2.037,2.037,0,1,0-4.072,0Zm9.319-.078H325.2v-5.286a2.7,2.7,0,0,0-5.4,0v5.286h-4.578v-11l.012-.011,7.27-6.751.027.025,7.258,6.739Zm-4.5-.078H329.7V341.985l-7.206-6.691-7.2,6.691v10.878h4.424v-5.208a2.781,2.781,0,1,1,5.562,0Zm-.823.078h-3.916v-5.286a1.958,1.958,0,1,1,3.916,0Zm-3.837-.078h3.759v-5.208a1.879,1.879,0,1,0-3.759,0Z" transform="translate(-228.018 406.981)" fill="#a5a5a5"/>
          <ellipse id="Ellipse_96" data-name="Ellipse 96" cx="43" cy="44.5" rx="43" ry="44.5" transform="translate(71.248 137.817)" fill="#e3e3e3"/>
          <rect id="Rectangle_368" data-name="Rectangle 368" width="186" height="48" transform="translate(179.248 157.817)" fill="#f2f2f2"/>
          <rect id="Rectangle_369" data-name="Rectangle 369" width="364" height="92" transform="translate(36.248 245.817)" fill="#f2f2f2"/>
          <rect id="Rectangle_370" data-name="Rectangle 370" width="137" height="183" transform="translate(71.248 388.817)" fill="#f2f2f2"/>
          <rect id="Rectangle_371" data-name="Rectangle 371" width="141" height="183" transform="translate(230.248 388.817)" fill="#f2f2f2"/>
          <rect id="Rectangle_372" data-name="Rectangle 372" width="83" height="28" transform="translate(62.248 276.817)" fill="#e3e3e3"/>
          <rect id="Rectangle_373" data-name="Rectangle 373" width="81" height="28" transform="translate(179.248 276.817)" fill="#e3e3e3"/>
          <rect id="Rectangle_374" data-name="Rectangle 374" width="85" height="28" transform="translate(291.248 276.817)" fill="#e3e3e3"/>
        </g>
      </g>
      <path id="Mask-11" data-name="Mask" d="M365.194,397.246q0,179.417.011,358.834a37.073,37.073,0,0,1-5.695,20.259,37.479,37.479,0,0,1-26.716,17.567,33.438,33.438,0,0,1-5.4.391q-144.754.027-289.508.012A37.943,37.943,0,0,1,.481,762.394a42.039,42.039,0,0,1-.447-6.58Q0,671.318.016,586.821.016,312.653,0,38.489A37.322,37.322,0,0,1,5.137,18.92,37.1,37.1,0,0,1,31.525.621,33.547,33.547,0,0,1,37.239.036c12.6-.052,25.2-.036,37.8-.025,3.2,0,5.047,1.665,5.381,4.843.13,1.228.2,2.468.217,3.7a19.444,19.444,0,0,0,1.466,7.6c3.264,7.567,8.94,12.007,17.172,13.021a36.024,36.024,0,0,0,4.392.223q79.838.017,159.67.01a21.561,21.561,0,0,0,10.915-2.553,20.522,20.522,0,0,0,11-18.059c.057-1.462.1-2.927.243-4.38A4.873,4.873,0,0,1,290.1.018c.393-.03.791-.011,1.186-.011h35.765a37.906,37.906,0,0,1,37.269,29.834,61.246,61.246,0,0,1,.861,7.385c.087.893.016,1.807.016,2.711V397.246" transform="translate(1599.821 7581.183)" fill="none" stroke="#707070" stroke-width="2" opacity="0.2"/>
      <path id="Mask-12" data-name="Mask" d="M365.194,397.246q0,179.417.011,358.834a37.073,37.073,0,0,1-5.695,20.259,37.479,37.479,0,0,1-26.716,17.567,33.438,33.438,0,0,1-5.4.391q-144.754.027-289.508.012A37.943,37.943,0,0,1,.481,762.394a42.039,42.039,0,0,1-.447-6.58Q0,671.318.016,586.821.016,312.653,0,38.489A37.322,37.322,0,0,1,5.137,18.92,37.1,37.1,0,0,1,31.525.621,33.547,33.547,0,0,1,37.239.036c12.6-.052,25.2-.036,37.8-.025,3.2,0,5.047,1.665,5.381,4.843.13,1.228.2,2.468.217,3.7a19.444,19.444,0,0,0,1.466,7.6c3.264,7.567,8.94,12.007,17.172,13.021a36.024,36.024,0,0,0,4.392.223q79.838.017,159.67.01a21.561,21.561,0,0,0,10.915-2.553,20.522,20.522,0,0,0,11-18.059c.057-1.462.1-2.927.243-4.38A4.873,4.873,0,0,1,290.1.018c.393-.03.791-.011,1.186-.011h35.765a37.906,37.906,0,0,1,37.269,29.834,61.246,61.246,0,0,1,.861,7.385c.087.893.016,1.807.016,2.711V397.246" transform="translate(-58.427 7581.183)" fill="none" stroke="#707070" stroke-width="3" opacity="0.2"/>
      <path id="Mask-13" data-name="Mask" d="M365.194,397.246q0,179.417.011,358.834a37.073,37.073,0,0,1-5.695,20.259,37.479,37.479,0,0,1-26.716,17.567,33.438,33.438,0,0,1-5.4.391q-144.754.027-289.508.012A37.943,37.943,0,0,1,.481,762.394a42.039,42.039,0,0,1-.447-6.58Q0,671.318.016,586.821.016,312.653,0,38.489A37.322,37.322,0,0,1,5.137,18.92,37.1,37.1,0,0,1,31.525.621,33.547,33.547,0,0,1,37.239.036c12.6-.052,25.2-.036,37.8-.025,3.2,0,5.047,1.665,5.381,4.843.13,1.228.2,2.468.217,3.7a19.444,19.444,0,0,0,1.466,7.6c3.264,7.567,8.94,12.007,17.172,13.021a36.024,36.024,0,0,0,4.392.223q79.838.017,159.67.01a21.561,21.561,0,0,0,10.915-2.553,20.522,20.522,0,0,0,11-18.059c.057-1.462.1-2.927.243-4.38A4.873,4.873,0,0,1,290.1.018c.393-.03.791-.011,1.186-.011h35.765a37.906,37.906,0,0,1,37.269,29.834,61.246,61.246,0,0,1,.861,7.385c.087.893.016,1.807.016,2.711V397.246" transform="translate(355.573 7582.183)" fill="none" stroke="#707070" stroke-width="3" opacity="0.2"/>
      <path id="Mask-14" data-name="Mask" d="M365.194,397.246q0,179.417.011,358.834a37.073,37.073,0,0,1-5.695,20.259,37.479,37.479,0,0,1-26.716,17.567,33.438,33.438,0,0,1-5.4.391q-144.754.027-289.508.012A37.943,37.943,0,0,1,.481,762.394a42.039,42.039,0,0,1-.447-6.58Q0,671.318.016,586.821.016,312.653,0,38.489A37.322,37.322,0,0,1,5.137,18.92,37.1,37.1,0,0,1,31.525.621,33.547,33.547,0,0,1,37.239.036c12.6-.052,25.2-.036,37.8-.025,3.2,0,5.047,1.665,5.381,4.843.13,1.228.2,2.468.217,3.7a19.444,19.444,0,0,0,1.466,7.6c3.264,7.567,8.94,12.007,17.172,13.021a36.024,36.024,0,0,0,4.392.223q79.838.017,159.67.01a21.561,21.561,0,0,0,10.915-2.553,20.522,20.522,0,0,0,11-18.059c.057-1.462.1-2.927.243-4.38A4.873,4.873,0,0,1,290.1.018c.393-.03.791-.011,1.186-.011h35.765a37.906,37.906,0,0,1,37.269,29.834,61.246,61.246,0,0,1,.861,7.385c.087.893.016,1.807.016,2.711V397.246" transform="translate(772.573 7581.183)" fill="none" stroke="#707070" stroke-width="3" opacity="0.2"/>
      <path id="Mask-15" data-name="Mask" d="M365.194,397.246q0,179.417.011,358.834a37.073,37.073,0,0,1-5.695,20.259,37.479,37.479,0,0,1-26.716,17.567,33.438,33.438,0,0,1-5.4.391q-144.754.027-289.508.012A37.943,37.943,0,0,1,.481,762.394a42.039,42.039,0,0,1-.447-6.58Q0,671.318.016,586.821.016,312.653,0,38.489A37.322,37.322,0,0,1,5.137,18.92,37.1,37.1,0,0,1,31.525.621,33.547,33.547,0,0,1,37.239.036c12.6-.052,25.2-.036,37.8-.025,3.2,0,5.047,1.665,5.381,4.843.13,1.228.2,2.468.217,3.7a19.444,19.444,0,0,0,1.466,7.6c3.264,7.567,8.94,12.007,17.172,13.021a36.024,36.024,0,0,0,4.392.223q79.838.017,159.67.01a21.561,21.561,0,0,0,10.915-2.553,20.522,20.522,0,0,0,11-18.059c.057-1.462.1-2.927.243-4.38A4.873,4.873,0,0,1,290.1.018c.393-.03.791-.011,1.186-.011h35.765a37.906,37.906,0,0,1,37.269,29.834,61.246,61.246,0,0,1,.861,7.385c.087.893.016,1.807.016,2.711V397.246" transform="translate(1184.573 7581.183)" fill="none" stroke="#707070" stroke-width="3" opacity="0.2"/>
      <path id="Mask-16" data-name="Mask" d="M365.194,397.246q0,179.417.011,358.834a37.073,37.073,0,0,1-5.695,20.259,37.479,37.479,0,0,1-26.716,17.567,33.438,33.438,0,0,1-5.4.391q-144.754.027-289.508.012A37.943,37.943,0,0,1,.481,762.394a42.039,42.039,0,0,1-.447-6.58Q0,671.318.016,586.821.016,312.653,0,38.489A37.322,37.322,0,0,1,5.137,18.92,37.1,37.1,0,0,1,31.525.621,33.547,33.547,0,0,1,37.239.036c12.6-.052,25.2-.036,37.8-.025,3.2,0,5.047,1.665,5.381,4.843.13,1.228.2,2.468.217,3.7a19.444,19.444,0,0,0,1.466,7.6c3.264,7.567,8.94,12.007,17.172,13.021a36.024,36.024,0,0,0,4.392.223q79.838.017,159.67.01a21.561,21.561,0,0,0,10.915-2.553,20.522,20.522,0,0,0,11-18.059c.057-1.462.1-2.927.243-4.38A4.873,4.873,0,0,1,290.1.018c.393-.03.791-.011,1.186-.011h35.765a37.906,37.906,0,0,1,37.269,29.834,61.246,61.246,0,0,1,.861,7.385c.087.893.016,1.807.016,2.711V397.246" transform="translate(1599.573 7581.183)" fill="none" stroke="#707070" stroke-width="3" opacity="0.2"/>
      <rect id="Rectangle_391" data-name="Rectangle 391" width="146" height="39" transform="translate(960 8287)" fill="#e4e4e4"/>
      <rect id="Rectangle_392" data-name="Rectangle 392" width="303" height="51" transform="translate(803 7788)" fill="#f2f2f2"/>
      <rect id="Rectangle_393" data-name="Rectangle 393" width="303" height="17" transform="translate(803 7854)" fill="#f2f2f2"/>
      <rect id="Rectangle_394" data-name="Rectangle 394" width="115" height="24" transform="translate(803 7889)" fill="#f2f2f2"/>
      <rect id="Rectangle_395" data-name="Rectangle 395" width="115" height="26" transform="translate(803 7924)" fill="#f2f2f2"/>
      <rect id="Rectangle_396" data-name="Rectangle 396" width="94" height="92" transform="translate(803 8071)" fill="#f2f2f2"/>
      <rect id="Rectangle_397" data-name="Rectangle 397" width="94" height="91" transform="translate(803 8172)" fill="#f2f2f2"/>
      <rect id="Rectangle_398" data-name="Rectangle 398" width="98" height="92" transform="translate(907 8071)" fill="#f2f2f2"/>
      <rect id="Rectangle_399" data-name="Rectangle 399" width="98" height="91" transform="translate(907 8172)" fill="#f2f2f2"/>
      <rect id="Rectangle_400" data-name="Rectangle 400" width="92" height="92" transform="translate(1014 8071)" fill="#f2f2f2"/>
      <rect id="Rectangle_401" data-name="Rectangle 401" width="92" height="91" transform="translate(1014 8172)" fill="#f2f2f2"/>
      <text id="Add_pages" data-name="Add pages" transform="translate(833 8316)" fill="#a5a5a5" font-size="18" font-family="Gilroy-Medium" font-weight="500"><tspan x="0" y="0">Add pages</tspan></text>
      <text id="Add_photos" data-name="Add photos" transform="translate(803 8043)" fill="#a5a5a5" font-size="14" font-family="Gilroy-Light, Gilroy" font-weight="300"><tspan x="0" y="0">Add photos</tspan></text>
      <text id="Write_diary" data-name="Write diary" transform="translate(811 7745)" fill="#a5a5a5" font-size="19" font-family="Gilroy-Light, Gilroy" font-weight="300"><tspan x="0" y="0">Write diary</tspan></text>
      <g id="arrow_1_" data-name="arrow (1)" transform="translate(822.577 7653.537) rotate(90)">
        <path id="Path_209" data-name="Path 209" d="M11.468,13.069a1.6,1.6,0,0,1-1.136-.47L.47,2.742A1.606,1.606,0,0,1,2.742.47L11.468,9.2,20.194.47a1.606,1.606,0,1,1,2.27,2.271L12.6,12.6a1.6,1.6,0,0,1-1.134.466Z" transform="translate(0 0)" fill="#a5a5a5"/>
      </g>
    </g>
  </g>
</svg>
