<svg xmlns="http://www.w3.org/2000/svg" width="1606.266" height="951.587" viewBox="0 0 1606.266 951.587">
  <g id="Group_620" data-name="Group 620" transform="translate(-185.525 -6447.693)">
    <g id="Group_585" data-name="Group 585" transform="translate(185.525 6601.685)">
      <path id="Path_1228" data-name="Path 1228" d="M1281.173,806.318a24.261,24.261,0,0,1-21.975,24.268c-7.577.71-15.471.113-23.072.113H1180.87c-15.486,0-25.209-10.691-25.209-26.439v.1a24.086,24.086,0,0,1,16.537-23.108c6.139-2.015,12.876-1.274,19.234-1.274h24.191c8.9,0,17.784-.389,26.677-.475,6.832-.065,14.67-.763,21.332.953a23.166,23.166,0,0,1,16.056,15.519,34.386,34.386,0,0,1,1.485,10.441" transform="translate(-216.59 -287.26)" fill="#e6abac"/>
      <rect id="Rectangle_365" data-name="Rectangle 365" width="120.936" height="55.484" transform="translate(941.814 599.335)" fill="#e6abac"/>
      <path id="Path_1238" data-name="Path 1238" d="M1082.173,406.318a24.261,24.261,0,0,1-21.976,24.268c-7.576.71-15.47.113-23.071.113H981.87c-15.486,0-25.209-10.691-25.209-26.439v.1A24.086,24.086,0,0,1,973.2,381.255c6.139-2.015,12.875-1.274,19.234-1.274h24.19c8.9,0,17.784-.389,26.678-.475,6.832-.065,14.67-.763,21.332.953a23.165,23.165,0,0,1,16.056,15.52,34.39,34.39,0,0,1,1.485,10.441" transform="translate(-220.426 -294.97)" fill="#e6abac"/>
      <path id="Path_1239" data-name="Path 1239" d="M1448.173,410.318a24.261,24.261,0,0,1-21.976,24.268c-7.576.71-15.471.113-23.072.113H1347.87c-15.486,0-25.209-10.691-25.209-26.439v.1a24.086,24.086,0,0,1,16.537-23.108c6.139-2.015,12.875-1.274,19.234-1.274h24.191c8.9,0,17.784-.389,26.677-.475,6.832-.065,14.671-.763,21.333.953a23.166,23.166,0,0,1,16.056,15.519,34.39,34.39,0,0,1,1.485,10.442" transform="translate(-213.37 -294.893)" fill="#e6abac"/>
      <path id="Path_1243" data-name="Path 1243" d="M546.173,450.318A24.261,24.261,0,0,1,524.2,474.586c-7.576.711-15.471.113-23.071.113H445.87c-15.486,0-25.209-10.691-25.209-26.439v.1A24.086,24.086,0,0,1,437.2,425.255c6.139-2.015,12.876-1.274,19.234-1.274h24.191c8.9,0,17.784-.389,26.678-.475,6.832-.065,14.67-.763,21.333.953a23.165,23.165,0,0,1,16.055,15.519,34.385,34.385,0,0,1,1.485,10.442" transform="translate(-230.76 -294.122)" fill="#e6abac"/>
      <rect id="Rectangle_368" data-name="Rectangle 368" width="120.936" height="55.484" fill="#e6abac"/>
      <rect id="Rectangle_370" data-name="Rectangle 370" width="120.936" height="55.484" transform="translate(567.738 131.487)" fill="#e6abac"/>
      <rect id="Rectangle_371" data-name="Rectangle 371" width="120.936" height="55.484" transform="translate(1359.718 305.783)" fill="#e6abac"/>
      <rect id="Rectangle_372" data-name="Rectangle 372" width="120.936" height="55.484" transform="translate(928.563 85.619)" fill="#e6abac"/>
      <rect id="Rectangle_374" data-name="Rectangle 374" width="120.936" height="55.484" transform="translate(379.172 256.858)" fill="#e6abac"/>
      <path id="Path_1244" data-name="Path 1244" d="M615.276,447.772,667.772,402l55.267,45.772-53.881,44.373Z" transform="translate(-227.008 -294.533)" fill="#e6abac"/>
      <path id="Path_1245" data-name="Path 1245" d="M242.276,447.772,294.771,402l55.267,45.772-53.881,44.373Z" transform="translate(-234.199 -294.533)" fill="#e6abac"/>
      <path id="Path_1246" data-name="Path 1246" d="M1327.277,548.772l52.5-45.772,55.266,45.772-53.881,44.373Z" transform="translate(-213.281 -292.586)" fill="#e6abac"/>
      <path id="Path_1247" data-name="Path 1247" d="M1504.276,411.772l52.5-45.772,55.266,45.772-53.881,44.373Z" transform="translate(-209.869 -295.227)" fill="#e6abac"/>
      <path id="Path_1248" data-name="Path 1248" d="M1329.276,805.772l52.5-45.772,55.267,45.772-53.881,44.373Z" transform="translate(-213.243 -287.631)" fill="#e6abac"/>
    </g>
    <path id="Path_1225" data-name="Path 1225" d="M877.173,804.318A24.261,24.261,0,0,1,855.2,828.586c-7.576.711-15.471.113-23.071.113H776.87c-15.486,0-25.209-10.691-25.209-26.439v.1A24.086,24.086,0,0,1,768.2,779.255c6.139-2.015,12.875-1.274,19.234-1.274h24.19c8.9,0,17.784-.389,26.678-.475,6.832-.065,14.671-.763,21.333.953a23.165,23.165,0,0,1,16.056,15.52,34.382,34.382,0,0,1,1.485,10.441" transform="translate(-38.853 6314.386)" fill="none" stroke="#909090" stroke-width="1"/>
    <path id="Path_1226" data-name="Path 1226" d="M1010.173,805.318A24.261,24.261,0,0,1,988.2,829.586c-7.576.711-15.471.113-23.071.113H909.87c-15.486,0-25.209-10.691-25.209-26.439v.1A24.086,24.086,0,0,1,901.2,780.255c6.139-2.015,12.876-1.274,19.234-1.274h24.19c8.9,0,17.784-.389,26.678-.475,6.832-.065,14.67-.763,21.333.953a23.166,23.166,0,0,1,16.056,15.52,34.386,34.386,0,0,1,1.485,10.441" transform="translate(-36.289 6314.406)" fill="none" stroke="#909090" stroke-width="1"/>
    <path id="Path_1227" data-name="Path 1227" d="M1149.173,806.318a24.261,24.261,0,0,1-21.976,24.268c-7.576.71-15.471.113-23.071.113H1048.87c-15.486,0-25.209-10.691-25.209-26.439v.1a24.086,24.086,0,0,1,16.537-23.108c6.139-2.015,12.875-1.274,19.234-1.274h24.191c8.895,0,17.784-.389,26.677-.475,6.832-.065,14.671-.763,21.332.953a23.164,23.164,0,0,1,16.056,15.519,34.383,34.383,0,0,1,1.485,10.441" transform="translate(-33.609 6314.425)" fill="none" stroke="#909090" stroke-width="1"/>
    <rect id="Rectangle_362" data-name="Rectangle 362" width="120.936" height="55.484" transform="translate(715.55 7201.021)" fill="none" stroke="#909090" stroke-width="1"/>
    <rect id="Rectangle_363" data-name="Rectangle 363" width="120.936" height="55.484" transform="translate(847.037 7201.021)" fill="none" stroke="#909090" stroke-width="1"/>
    <path id="Path_1229" data-name="Path 1229" d="M760.276,1035.772,812.772,990l55.267,45.772-53.881,44.373Z" transform="translate(-38.687 6318.487)" fill="none" stroke="#707070" stroke-width="1"/>
    <g id="Group_565" data-name="Group 565" transform="translate(773.737 7159.673)">
      <line id="Line_139" data-name="Line 139" y2="31.585" transform="translate(2.615)" fill="none" stroke="#909090" stroke-linecap="round" stroke-linejoin="round" stroke-width="1.5"/>
      <path id="Path_1230" data-name="Path 1230" d="M811.438,872.85l2.615,2.615,2.615-2.615" transform="translate(-811.438 -843.444)" fill="none" stroke="#909090" stroke-linecap="round" stroke-linejoin="round" stroke-width="1.5"/>
    </g>
    <g id="Group_566" data-name="Group 566" transform="translate(773.737 7265.678)">
      <line id="Line_140" data-name="Line 140" y2="31.585" transform="translate(2.615)" fill="none" stroke="#909090" stroke-linecap="round" stroke-linejoin="round" stroke-width="1.5"/>
      <path id="Path_1231" data-name="Path 1231" d="M811.438,976.85l2.615,2.615,2.615-2.615" transform="translate(-811.438 -947.444)" fill="none" stroke="#909090" stroke-linecap="round" stroke-linejoin="round" stroke-width="1.5"/>
    </g>
    <g id="Group_567" data-name="Group 567" transform="translate(905.224 7159.673)">
      <line id="Line_141" data-name="Line 141" y2="31.585" transform="translate(2.615)" fill="none" stroke="#909090" stroke-linecap="round" stroke-linejoin="round" stroke-width="1.5"/>
      <path id="Path_1232" data-name="Path 1232" d="M940.438,872.85l2.615,2.615,2.615-2.615" transform="translate(-940.438 -843.444)" fill="none" stroke="#909090" stroke-linecap="round" stroke-linejoin="round" stroke-width="1.5"/>
    </g>
    <g id="Group_568" data-name="Group 568" transform="translate(1048.943 7159.673)">
      <line id="Line_142" data-name="Line 142" y2="31.585" transform="translate(2.615)" fill="none" stroke="#909090" stroke-linecap="round" stroke-linejoin="round" stroke-width="1.5"/>
      <path id="Path_1233" data-name="Path 1233" d="M1081.438,872.85l2.615,2.615,2.615-2.615" transform="translate(-1081.438 -843.444)" fill="none" stroke="#909090" stroke-linecap="round" stroke-linejoin="round" stroke-width="1.5"/>
    </g>
    <g id="Group_569" data-name="Group 569" transform="translate(1185.526 7159.673)">
      <line id="Line_143" data-name="Line 143" y2="31.585" transform="translate(2.615)" fill="none" stroke="#909090" stroke-linecap="round" stroke-linejoin="round" stroke-width="1.5"/>
      <path id="Path_1234" data-name="Path 1234" d="M1215.438,872.85l2.615,2.615,2.615-2.615" transform="translate(-1215.438 -843.444)" fill="none" stroke="#909090" stroke-linecap="round" stroke-linejoin="round" stroke-width="1.5"/>
    </g>
    <path id="Path_582" data-name="Path 582" d="M1215.506,758.212l2.72,2.72,2.721-2.72" transform="translate(-29.911 6314.019)" fill="none" stroke="#909090" stroke-linecap="round" stroke-linejoin="round" stroke-width="1.5"/>
    <path id="Path_584" data-name="Path 584" d="M825.99,758.212l2.72,2.72,2.72-2.72" transform="translate(-37.42 6314.019)" fill="none" stroke="#909090" stroke-linecap="round" stroke-linejoin="round" stroke-width="1.5"/>
    <path id="Path_586" data-name="Path 586" d="M1015.714,730.42s1.529,10.94-9.173,11.7H938.426q-47.17,0-94.339-.06c-4.857-.009-10.8-.787-13.664,3.915-2.358,3.866-1.891,9.278-1.445,13.572" transform="translate(-37.369 6313.482)" fill="none" stroke="#909090" stroke-linecap="round" stroke-linejoin="round" stroke-width="1.5"/>
    <path id="Path_587" data-name="Path 587" d="M1012.247,729.926s-1.529,9.938,9.173,10.7h173.934c4.559,0,9.156-.458,13.716-.231,10.931.542,13.456,9.664,12.9,19.162" transform="translate(-33.831 6313.474)" fill="none" stroke="#909090" stroke-linecap="round" stroke-linejoin="round" stroke-width="1.5"/>
    <path id="Path_589" data-name="Path 589" d="M958.254,759.787l-2.721,2.72-2.72-2.72" transform="translate(-34.975 6314.049)" fill="none" stroke="#909090" stroke-linecap="round" stroke-linejoin="round" stroke-width="1.5"/>
    <path id="Path_590" data-name="Path 590" d="M1013.444,733.222c.092,3.091.666,21.179-17.469,20.159H963.106s-7.645-.763-7.645,8.407" transform="translate(-34.924 6313.537)" fill="none" stroke="#909090" stroke-linecap="round" stroke-linejoin="round" stroke-width="1.5"/>
    <path id="Path_589-2" data-name="Path 589" d="M1071.472,758.787l-2.719,2.72-2.721-2.72" transform="translate(-32.792 6314.03)" fill="none" stroke="#909090" stroke-linecap="round" stroke-linejoin="round" stroke-width="1.5"/>
    <path id="Path_590-2" data-name="Path 590" d="M1069.819,760.788c0-9.17-7.645-8.407-7.645-8.407h-32.869c-18.135,1.019-17.561-17.069-17.469-20.159" transform="translate(-33.838 6313.518)" fill="none" stroke="#909090" stroke-linecap="round" stroke-linejoin="round" stroke-width="1.5"/>
    <text id="Settings" transform="translate(773.6 7120.317)" fill="#8b8b8b" font-size="10" font-family="Graphik-Medium, Graphik" font-weight="500"><tspan x="-19.795" y="0">Settings</tspan></text>
    <text id="View_your_wishlist" data-name="View your 
wishlist" transform="translate(916.608 7114.962)" fill="#8b8b8b" font-size="10" font-family="Graphik-Medium, Graphik" font-weight="500"><tspan x="-24.75" y="0">View your </tspan><tspan x="-17.96" y="14">wishlist</tspan></text>
    <text id="Wishlist_page" data-name="Wishlist page" transform="translate(906.499 7232.18)" fill="#8b8b8b" font-size="10" font-family="Graphik-Medium, Graphik" font-weight="500"><tspan x="-31.81" y="0">Wishlist page</tspan></text>
    <rect id="Rectangle_364" data-name="Rectangle 364" width="120.936" height="55.484" transform="translate(993.814 7201.021)" fill="none" stroke="#909090" stroke-width="1"/>
    <text id="Stamps_page" data-name="Stamps page" transform="translate(1054.295 7232.18)" fill="#8b8b8b" font-size="10" font-family="Graphik-Medium, Graphik" font-weight="500"><tspan x="-31.24" y="0">Stamps page</tspan></text>
    <text id="Diaries_page" data-name="Diaries page" transform="translate(1185.076 7234.18)" fill="#fff" font-size="10" font-family="Graphik-Medium, Graphik" font-weight="500"><tspan x="-29.63" y="0">Diaries page</tspan></text>
    <text id="Settings_page" data-name="Settings page" transform="translate(775.654 7232.18)" fill="#8b8b8b" font-size="10" font-family="Graphik-Medium, Graphik" font-weight="500"><tspan x="-32.99" y="0">Settings page</tspan></text>
    <text id="View_diaries_you_wrote" data-name="View diaries 
you wrote" transform="translate(1186.698 7113.981)" fill="#fff" font-size="10" font-family="Graphik-Medium, Graphik" font-weight="500"><tspan x="-30.05" y="0">View diaries </tspan><tspan x="-23.74" y="15">you wrote</tspan></text>
    <text id="Your_stamps_of_the_places_you_visited" data-name="Your stamps of the 
places you visited" transform="translate(1054.162 7115.441)" fill="#8b8b8b" font-size="10" font-family="Graphik-Medium, Graphik" font-weight="500"><tspan x="-45.56" y="0">Your stamps of the </tspan><tspan x="-42.565" y="14">places you visited</tspan></text>
    <g id="Group_570" data-name="Group 570" transform="translate(906.978 6631.176)">
      <path id="Path_1235" data-name="Path 1235" d="M1264.044,326.01l546.132-.51a10.966,10.966,0,0,1,1.762.136c3.256.529,13.02,2.988,14.182,13.534a10.8,10.8,0,0,1,.057,1.2l-6.116,693.53s5.1,18.347-12.231,18.347h-846S944.5,1053.265,944.5,1033.9v-63.7" transform="translate(-942.114 -325.5)" fill="none" stroke="#909090" stroke-linecap="round" stroke-linejoin="round" stroke-width="1.5"/>
      <path id="Path_1236" data-name="Path 1236" d="M947.389,959.744l-2.615-2.615-2.615,2.615" transform="translate(-942.159 -313.323)" fill="none" stroke="#909090" stroke-linecap="round" stroke-linejoin="round" stroke-width="1.5"/>
    </g>
    <rect id="Rectangle_366" data-name="Rectangle 366" width="9.174" height="14.27" transform="translate(1397.09 6622.513)" fill="#fff"/>
    <rect id="Rectangle_414" data-name="Rectangle 414" width="9.174" height="14.27" transform="translate(1232.09 6622.513)" fill="#fff"/>
    <rect id="Rectangle_367" data-name="Rectangle 367" width="9.174" height="14.27" transform="translate(1491.883 6622.513)" fill="#fff"/>
    <g id="Group_571" data-name="Group 571" transform="translate(245.751 6665.323)">
      <line id="Line_144" data-name="Line 144" x2="0.004" y2="37.701" transform="translate(2.612)" fill="none" stroke="#909090" stroke-linecap="round" stroke-linejoin="round" stroke-width="1.5"/>
      <path id="Path_1237" data-name="Path 1237" d="M293.438,393.85l2.615,2.615,2.615-2.615" transform="translate(-293.438 -358.328)" fill="none" stroke="#909090" stroke-linecap="round" stroke-linejoin="round" stroke-width="1.5"/>
    </g>
    <path id="Path_1240" data-name="Path 1240" d="M1083.173,501.318a24.261,24.261,0,0,1-21.976,24.268c-7.576.71-15.471.113-23.072.113H982.87c-15.486,0-25.209-10.691-25.209-26.439v.1A24.086,24.086,0,0,1,974.2,476.255c6.139-2.015,12.875-1.274,19.234-1.274h24.19c8.9,0,17.784-.389,26.678-.475,6.833-.065,14.671-.763,21.333.953a23.166,23.166,0,0,1,16.056,15.519,34.384,34.384,0,0,1,1.485,10.442" transform="translate(-34.882 6308.545)" fill="none" stroke="#707070" stroke-width="1"/>
    <path id="Path_1241" data-name="Path 1241" d="M1082.173,577.318a24.261,24.261,0,0,1-21.976,24.268c-7.576.71-15.47.113-23.071.113H981.87c-15.486,0-25.209-10.691-25.209-26.439v.1A24.086,24.086,0,0,1,973.2,552.255c6.139-2.015,12.875-1.274,19.234-1.274h24.19c8.9,0,17.784-.389,26.678-.475,6.832-.065,14.67-.764,21.332.953a23.165,23.165,0,0,1,16.056,15.52,34.389,34.389,0,0,1,1.485,10.441" transform="translate(-34.901 6310.011)" fill="none" stroke="#707070" stroke-width="1"/>
    <path id="Path_1242" data-name="Path 1242" d="M1081.173,327.318a24.261,24.261,0,0,1-21.976,24.268c-7.576.71-15.47.113-23.071.113H980.87c-15.486,0-25.209-10.691-25.209-26.439v.1A24.086,24.086,0,0,1,972.2,302.255c6.139-2.015,12.875-1.274,19.234-1.274h24.191c8.9,0,17.784-.389,26.678-.475,6.832-.065,14.67-.764,21.332.953a23.164,23.164,0,0,1,16.056,15.52,34.383,34.383,0,0,1,1.485,10.441" transform="translate(-34.92 6305.191)" fill="none" stroke="#909090" stroke-width="1"/>
    <rect id="Rectangle_373" data-name="Rectangle 373" width="120.936" height="55.484" transform="translate(1114.089 6601.685)" fill="#fff" stroke="#909090" stroke-width="1"/>
    <path id="Path_1249" data-name="Path 1249" d="M1216.276,207.855l45.544-39.711,47.948,39.711-46.746,38.5Z" transform="translate(-29.896 6302.643)" fill="none" stroke="#909090" stroke-width="1"/>
    <path id="Path_1250" data-name="Path 1250" d="M1102.277,207.855l45.543-39.711,47.948,39.711-46.746,38.5Z" transform="translate(-32.094 6302.643)" fill="none" stroke="#909090" stroke-width="1"/>
    <path id="Path_1251" data-name="Path 1251" d="M1428.276,325.855l45.543-39.711,47.949,39.711-46.746,38.5Z" transform="translate(-25.809 6304.918)" fill="#fff" stroke="#909090" stroke-width="1"/>
    <g id="Group_572" data-name="Group 572" transform="translate(308.5 6751.805)">
      <line id="Line_145" data-name="Line 145" x2="60.728" transform="translate(0 2.615)" fill="none" stroke="#909090" stroke-linecap="round" stroke-linejoin="round" stroke-width="1.5"/>
      <path id="Path_1252" data-name="Path 1252" d="M412.441,449.077l2.615-2.615-2.615-2.615" transform="translate(-353.893 -443.846)" fill="none" stroke="#909090" stroke-linecap="round" stroke-linejoin="round" stroke-width="1.5"/>
    </g>
    <g id="Group_575" data-name="Group 575" transform="translate(1051.554 6713.072)">
      <line id="Line_148" data-name="Line 148" x2="52.574" transform="translate(0 2.615)" fill="none" stroke="#909090" stroke-linecap="round" stroke-linejoin="round" stroke-width="1.5"/>
      <path id="Path_1255" data-name="Path 1255" d="M1133.441,411.077l2.615-2.615-2.615-2.615" transform="translate(-1083.047 -405.846)" fill="none" stroke="#909090" stroke-linecap="round" stroke-linejoin="round" stroke-width="1.5"/>
    </g>
    <g id="Group_576" data-name="Group 576" transform="translate(976.574 6917.084)">
      <line id="Line_149" data-name="Line 149" y2="36.682" transform="translate(2.615 0)" fill="none" stroke="#909090" stroke-linecap="round" stroke-linejoin="round" stroke-width="1.5"/>
      <path id="Path_1256" data-name="Path 1256" d="M1010.438,639.85l2.615,2.615,2.615-2.615" transform="translate(-1010.438 -605.347)" fill="none" stroke="#909090" stroke-linecap="round" stroke-linejoin="round" stroke-width="1.5"/>
    </g>
    <g id="Group_577" data-name="Group 577" transform="translate(511.336 6754.862)">
      <line id="Line_150" data-name="Line 150" x2="52.574" transform="translate(0 2.615)" fill="none" stroke="#909090" stroke-linecap="round" stroke-linejoin="round" stroke-width="1.5"/>
      <path id="Path_1257" data-name="Path 1257" d="M603.441,452.077l2.615-2.615-2.615-2.615" transform="translate(-553.047 -446.846)" fill="none" stroke="#909090" stroke-linecap="round" stroke-linejoin="round" stroke-width="1.5"/>
    </g>
    <g id="Group_578" data-name="Group 578" transform="translate(1239.102 6715.112)">
      <line id="Line_151" data-name="Line 151" x2="52.574" transform="translate(0 2.615)" fill="none" stroke="#909090" stroke-linecap="round" stroke-linejoin="round" stroke-width="1.5"/>
      <path id="Path_1258" data-name="Path 1258" d="M1317.442,413.077l2.615-2.615-2.615-2.615" transform="translate(-1267.047 -407.846)" fill="none" stroke="#909090" stroke-linecap="round" stroke-linejoin="round" stroke-width="1.5"/>
    </g>
    <path id="Path_1259" data-name="Path 1259" d="M1209.389,448.744l-2.615-2.615-2.615,2.615" transform="translate(-30.129 6308.003)" fill="none" stroke="#909090" stroke-linecap="round" stroke-linejoin="round" stroke-width="1.5"/>
    <g id="Group_579" data-name="Group 579" transform="translate(1422.572 6715.112)">
      <line id="Line_152" data-name="Line 152" x2="52.574" transform="translate(0 2.615)" fill="none" stroke="#909090" stroke-linecap="round" stroke-linejoin="round" stroke-width="1.5"/>
      <path id="Path_1260" data-name="Path 1260" d="M1497.442,413.077l2.615-2.615-2.615-2.615" transform="translate(-1447.047 -407.846)" fill="none" stroke="#909090" stroke-linecap="round" stroke-linejoin="round" stroke-width="1.5"/>
    </g>
    <g id="Group_580" data-name="Group 580" transform="translate(1350.649 6769.29)">
      <line id="Line_153" data-name="Line 153" y2="32.605" transform="translate(2.615)" fill="none" stroke="#909090" stroke-linecap="round" stroke-linejoin="round" stroke-width="1.5"/>
      <path id="Path_1261" data-name="Path 1261" d="M1377.438,490.85l2.615,2.615,2.615-2.615" transform="translate(-1377.438 -460.425)" fill="none" stroke="#909090" stroke-linecap="round" stroke-linejoin="round" stroke-width="1.5"/>
    </g>
    <path id="Path_1262" data-name="Path 1262" d="M1627.438,588.85l2.615,2.615,2.615-2.615" transform="translate(-21.969 6310.754)" fill="none" stroke="#d0d0d0" stroke-linecap="round" stroke-linejoin="round" stroke-width="1.5"/>
    <g id="Group_581" data-name="Group 581" transform="translate(685.633 6751.805)">
      <line id="Line_154" data-name="Line 154" x2="58.69" transform="translate(0 2.615)" fill="none" stroke="#909090" stroke-linecap="round" stroke-linejoin="round" stroke-width="1.5"/>
      <path id="Path_1263" data-name="Path 1263" d="M780.441,449.077l2.615-2.615-2.615-2.615" transform="translate(-723.931 -443.846)" fill="none" stroke="#909090" stroke-linecap="round" stroke-linejoin="round" stroke-width="1.5"/>
    </g>
    <path id="Path_1264" data-name="Path 1264" d="M779.441,466.077l2.615-2.615-2.615-2.615" transform="translate(-38.317 6308.286)" fill="none" stroke="#d0d0d0" stroke-linecap="round" stroke-linejoin="round" stroke-width="1.5"/>
    <g id="Group_582" data-name="Group 582" transform="translate(1260.506 7116.707)">
      <line id="Line_155" data-name="Line 155" x2="36.265" transform="translate(0 2.615)" fill="none" stroke="#909090" stroke-linecap="round" stroke-linejoin="round" stroke-width="1.5"/>
      <path id="Path_1265" data-name="Path 1265" d="M1322.442,807.077l2.615-2.615-2.615-2.615" transform="translate(-1288.355 -801.846)" fill="none" stroke="#909090" stroke-linecap="round" stroke-linejoin="round" stroke-width="1.5"/>
    </g>
    <path id="Path_1266" data-name="Path 1266" d="M1554.442,641.077l2.615-2.615-2.615-2.615" transform="translate(-23.376 6311.66)" fill="none" stroke="#d0d0d0" stroke-linecap="round" stroke-linejoin="round" stroke-width="1.5"/>
    <path id="Path_1267" data-name="Path 1267" d="M1554.442,623.077l2.615-2.615-2.615-2.615" transform="translate(-23.376 6311.313)" fill="none" stroke="#d0d0d0" stroke-linecap="round" stroke-linejoin="round" stroke-width="1.5"/>
    <g id="Group_583" data-name="Group 583" transform="translate(1051.554 6626.434)">
      <line id="Line_156" data-name="Line 156" x2="52.574" transform="translate(0 2.615)" fill="none" stroke="#909090" stroke-linecap="round" stroke-linejoin="round" stroke-width="1.5"/>
      <path id="Path_1268" data-name="Path 1268" d="M1133.441,326.077l2.615-2.615-2.615-2.615" transform="translate(-1083.047 -320.846)" fill="none" stroke="#909090" stroke-linecap="round" stroke-linejoin="round" stroke-width="1.5"/>
    </g>
    <g id="Group_584" data-name="Group 584" transform="translate(624.923 6805.983)">
      <line id="Line_157" data-name="Line 157" y2="41.778" transform="translate(2.615)" fill="none" stroke="#909090" stroke-linecap="round" stroke-linejoin="round" stroke-width="1.5"/>
      <path id="Path_1269" data-name="Path 1269" d="M665.438,535.85l2.615,2.615,2.615-2.615" transform="translate(-665.438 -496.251)" fill="none" stroke="#909090" stroke-linecap="round" stroke-linejoin="round" stroke-width="1.5"/>
    </g>
    <path id="Path_577" data-name="Path 577" d="M925.745,448.619s11.1.366,11.863-10.336V405.416s-.765-7.645,8.407-7.645" transform="translate(-35.497 6307.07)" fill="none" stroke="#d0d0d0" stroke-linecap="round" stroke-linejoin="round" stroke-width="1.5"/>
    <path id="Path_582-2" data-name="Path 582" d="M940.141,326.5l2.721-2.72-2.721-2.72" transform="translate(-35.219 6305.591)" fill="none" stroke="#909090" stroke-linecap="round" stroke-linejoin="round" stroke-width="1.5"/>
    <path id="Path_583" data-name="Path 583" d="M944.171,400.565l2.721-2.72-2.721-2.72" transform="translate(-35.142 6307.019)" fill="none" stroke="#909090" stroke-linecap="round" stroke-linejoin="round" stroke-width="1.5"/>
    <path id="Path_584-2" data-name="Path 584" d="M940.141,584.018l2.721-2.72-2.721-2.72" transform="translate(-35.219 6310.555)" fill="none" stroke="#909090" stroke-linecap="round" stroke-linejoin="round" stroke-width="1.5"/>
    <path id="Path_585" data-name="Path 585" d="M924.606,448.619c3.09.092,12.265.274,13.024-10.336V405.416s-.765-7.645,8.407-7.645" transform="translate(-35.519 6307.07)" fill="none" stroke="#909090" stroke-linecap="round" stroke-linejoin="round" stroke-width="1.5"/>
    <path id="Path_586-2" data-name="Path 586" d="M923.349,447.731s10.94-1.529,11.7,9.174V576.879s-.765,7.645,8.407,7.645" transform="translate(-35.543 6308.032)" fill="none" stroke="#909090" stroke-linecap="round" stroke-linejoin="round" stroke-width="1.5"/>
    <path id="Path_587-2" data-name="Path 587" d="M922.855,450.05s9.938,1.529,10.7-9.174V331.352s-.763-7.645,8.409-7.645" transform="translate(-35.553 6305.643)" fill="none" stroke="#909090" stroke-linecap="round" stroke-linejoin="round" stroke-width="1.5"/>
    <path id="Path_588" data-name="Path 588" d="M926.886,447.558s11.1-.366,11.861,10.334v32.869s-.764,7.645,8.407,7.645" transform="translate(-35.475 6308.03)" fill="none" stroke="#d0d0d0" stroke-linecap="round" stroke-linejoin="round" stroke-width="1.5"/>
    <path id="Path_589-3" data-name="Path 589" d="M945.31,494.754l2.721,2.72-2.721,2.72" transform="translate(-35.12 6308.94)" fill="none" stroke="#d0d0d0" stroke-linecap="round" stroke-linejoin="round" stroke-width="1.5"/>
    <path id="Path_590-3" data-name="Path 590" d="M925.745,447.559c3.09-.092,12.267-.274,13.024,10.334v32.869s-.763,7.645,8.407,7.645" transform="translate(-35.497 6308.029)" fill="none" stroke="#909090" stroke-linecap="round" stroke-linejoin="round" stroke-width="1.5"/>
    <path id="Path_589-4" data-name="Path 589" d="M913.032,148.942l2.72-2.72,2.719,2.72" transform="translate(-35.742 6302.221)" fill="none" stroke="#d0d0d0" stroke-linecap="round" stroke-linejoin="round" stroke-width="1.5"/>
    <path id="Path_590-4" data-name="Path 590" d="M1204.837,285.318c-.092-3.09-.666-21.179,17.469-20.159h32.869s7.645.763,7.645-8.407" transform="translate(-30.117 6304.352)" fill="none" stroke="#909090" stroke-linecap="round" stroke-linejoin="round" stroke-width="1.5"/>
    <path id="Path_589-5" data-name="Path 589" d="M1145.813,259.264l2.72-2.72,2.72,2.72" transform="translate(-31.254 6304.347)" fill="none" stroke="#909090" stroke-linecap="round" stroke-linejoin="round" stroke-width="1.5"/>
    <path id="Path_589-6" data-name="Path 589" d="M1258.813,259.264l2.72-2.72,2.72,2.72" transform="translate(-29.076 6304.347)" fill="none" stroke="#909090" stroke-linecap="round" stroke-linejoin="round" stroke-width="1.5"/>
    <path id="Path_589-7" data-name="Path 589" d="M1421.148,323.21l2.72,2.719-2.72,2.72" transform="translate(-25.946 6305.632)" fill="none" stroke="#909090" stroke-linecap="round" stroke-linejoin="round" stroke-width="1.5"/>
    <path id="Path_590-5" data-name="Path 590" d="M1148.461,257.752c0,9.17,7.645,8.407,7.645,8.407h32.869c18.135-1.019,17.561,17.069,17.47,20.159" transform="translate(-31.203 6304.371)" fill="none" stroke="#909090" stroke-linecap="round" stroke-linejoin="round" stroke-width="1.5"/>
    <path id="Path_1270" data-name="Path 1270" d="M1089,501h145.757s16.308-3.058,16.308,19.366v87.148s-3.568,16.308,21.915,15.289H1565" transform="translate(-32.35 6309.058)" fill="none" stroke="#909090" stroke-linecap="round" stroke-linejoin="round" stroke-width="1.5"/>
    <path id="Path_1271" data-name="Path 1271" d="M1441,553.177h101.418s15.289,4.077,15.289-19.366V464.5" transform="translate(-25.563 6308.357)" fill="none" stroke="#909090" stroke-linecap="round" stroke-linejoin="round" stroke-width="1.5"/>
    <path id="Path_1272" data-name="Path 1272" d="M1326.256,549.947c0-17.153-.03-34.307.016-51.459.038-13.565,4.141-26.074-13.267-24.987h-97.85S1207,475.54,1207,463.309V447" transform="translate(-30.075 6308.02)" fill="none" stroke="#909090" stroke-linecap="round" stroke-linejoin="round" stroke-width="1.5"/>
    <path id="Path_1273" data-name="Path 1273" d="M296.389,496.744l-2.615-2.615-2.615,2.615" transform="translate(-47.731 6308.928)" fill="none" stroke="#909090" stroke-linecap="round" stroke-linejoin="round" stroke-width="1.5"/>
    <path id="Path_1274" data-name="Path 1274" d="M1558.389,466.744l-2.615-2.615-2.615,2.615" transform="translate(-23.401 6308.35)" fill="none" stroke="#909090" stroke-linecap="round" stroke-linejoin="round" stroke-width="1.5"/>
    <path id="Path_1275" data-name="Path 1275" d="M1617,411h6.115s7.135,0,7.135,11.212V592.431" transform="translate(-22.17 6307.325)" fill="none" stroke="#909090" stroke-linecap="round" stroke-linejoin="round" stroke-width="1.5"/>
    <path id="Path_1276" data-name="Path 1276" d="M1438,808.22h71.35c0-10,.769-151.394.532-161.333-.153-6.449,4.608-8.886,10.68-8.886h37.714" transform="translate(-25.621 6311.702)" fill="none" stroke="#909090" stroke-linecap="round" stroke-linejoin="round" stroke-width="1.5"/>
    <path id="Path_1277" data-name="Path 1277" d="M732.5,571.544c17.172,0,23.953,3.568,23.443-20.386V473.693S753.9,463.5,765.117,463.5h16.309" transform="translate(-39.222 6308.337)" fill="none" stroke="#909090" stroke-linecap="round" stroke-linejoin="round" stroke-width="1.5"/>
    <text id="Log_in_Page" data-name="Log in Page" transform="translate(223.304 6632.864)" fill="#fff" font-size="10" font-family="Graphik-Medium, Graphik" font-weight="500"><tspan x="0" y="0">Log in Page</tspan></text>
    <text id="Start" transform="translate(221 6587)" fill="#909090" font-size="19" font-family="Graphik-Medium, Graphik" font-weight="500"><tspan x="0" y="0">Start</tspan></text>
    <text id="Home_page" data-name="Home page" transform="translate(783.46 6765.551)" fill="#fff" font-size="10" font-family="Graphik-Medium, Graphik" font-weight="500"><tspan x="0" y="0">Home page</tspan></text>
    <rect id="Rectangle_376" data-name="Rectangle 376" width="120.936" height="55.484" transform="translate(924.503 6967.605)" fill="none" stroke="#707070" stroke-width="1"/>
    <text id="Profile_page" data-name="Profile page" transform="translate(957.459 6995.746)" fill="#8b8b8b" font-size="10" font-family="Graphik-Medium, Graphik" font-weight="500"><tspan x="0" y="0">Profile page</tspan></text>
    <text id="Search_for_diaries" data-name="Search for 
diaries" transform="translate(983.638 6630.207)" fill="#8b8b8b" font-size="10" font-family="Graphik-Medium, Graphik" font-weight="500"><tspan x="-25.855" y="0">Search for </tspan><tspan x="-16.03" y="15">diaries</tspan></text>
    <text id="Diary_Page" data-name="Diary Page" transform="translate(1174.423 6632.285)" fill="#8b8b8b" font-size="10" font-family="Graphik-Medium, Graphik" font-weight="500"><tspan x="-25.5" y="0">Diary Page</tspan></text>
    <text id="Like_a_journal" data-name="Like a 
journal" transform="translate(1235.023 6508.064)" fill="#909090" font-size="8" font-family="Graphik-Medium, Graphik" font-weight="500"><tspan x="-11.792" y="0">Like a </tspan><tspan x="-13.272" y="10">journal</tspan></text>
    <text id="Comment_on_a_journal" data-name="Comment 
on a 
journal" transform="translate(1117.871 6503.787)" fill="#909090" font-size="8" font-family="Graphik-Medium, Graphik" font-weight="500"><tspan x="-19.932" y="0">Comment </tspan><tspan x="-9" y="10">on a </tspan><tspan x="-13.272" y="20">journal</tspan></text>
    <text id="Add_journal_to_wishlist" data-name="Add journal 
to wishlist" transform="translate(1448.839 6627.378)" fill="#8b8b8b" font-size="10" font-family="Graphik-Medium, Graphik" font-weight="500"><tspan x="-28.765" y="0">Add journal </tspan><tspan x="-24.05" y="15">to wishlist</tspan></text>
    <text id="Publish" transform="translate(1535.191 6722.672)" fill="#fff" font-size="10" font-family="Graphik-Medium, Graphik" font-weight="500"><tspan x="-17.455" y="0">Publish</tspan></text>
    <text id="Add_more_days" data-name="Add more
 days" transform="translate(1353.602 6856.216)" fill="#fff" font-size="10" font-family="Graphik-Medium, Graphik" font-weight="500"><tspan x="-23.465" y="0">Add more</tspan><tspan x="-12.29" y="15" xml:space="preserve"> days</tspan></text>
    <text id="View_specific_diary_" data-name="View 
specific 
diary?" transform="translate(1355.279 7107.314)" fill="#fff" font-size="10" font-family="Graphik-Medium, Graphik" font-weight="500"><tspan x="-12.83" y="0">View </tspan><tspan x="-19.93" y="15">specific </tspan><tspan x="-14.675" y="30">diary?</tspan></text>
    <text id="Add_date_location_pictures" data-name="Add date, location, 
pictures" transform="translate(1356.297 6713.336)" fill="#fff" font-size="10" font-family="Graphik-Medium, Graphik" font-weight="500"><tspan x="-46.3" y="0">Add date, location, </tspan><tspan x="-19.595" y="15">pictures</tspan></text>
    <text id="Write_Diary" data-name="Write Diary" transform="translate(985.038 6715.946)" fill="#fff" font-size="10" font-family="Graphik-Medium, Graphik" font-weight="500"><tspan x="-26.425" y="0">Write Diary</tspan></text>
    <text id="Add_a_day_page" data-name="Add a day page" transform="translate(1174.133 6717.665)" fill="#fff" font-size="10" font-family="Graphik-Medium, Graphik" font-weight="500"><tspan x="-36.775" y="0">Add a day page</tspan></text>
    <text id="Go_to_notifications" data-name="Go to 
notifications" transform="translate(981.48 6805.561)" fill="#8b8b8b" font-size="10" font-family="Graphik-Medium, Graphik" font-weight="500"><tspan x="-14.21" y="0">Go to </tspan><tspan x="-29.81" y="14">notifications</tspan></text>
    <text id="View_personal_profile" data-name="View personal
profile" transform="translate(981.383 6883.047)" fill="#8b8b8b" font-size="10" font-family="Graphik-Medium, Graphik" font-weight="500"><tspan x="-33.575" y="0">View personal</tspan><tspan x="-15.51" y="14">profile</tspan></text>
    <text id="Log_out_of_profile" data-name="Log out of 
profile" transform="translate(774.665 7351.656)" fill="#8b8b8b" font-size="10" font-family="Graphik-Medium, Graphik" font-weight="500"><tspan x="-25.285" y="0">Log out of </tspan><tspan x="-15.51" y="15">profile</tspan></text>
    <text id="Has_Account_" data-name="Has 
Account?" transform="translate(628.908 6750.042)" fill="#fff" font-size="10" font-family="Graphik-Medium, Graphik" font-weight="500"><tspan x="-10.165" y="0">Has </tspan><tspan x="-22.735" y="11">Account?</tspan></text>
    <text id="Log_in_" data-name="Log in?" transform="translate(247.614 6757.196)" fill="#fff" font-size="10" font-family="Graphik-Medium, Graphik" font-weight="500"><tspan x="-16.99" y="0">Log in?</tspan></text>
    <text id="Click_on_Log_in_" data-name="Click on “Log in”" transform="translate(434.835 6759.253)" fill="#fff" font-size="10" font-family="Graphik-Medium, Graphik" font-weight="500"><tspan x="-39.58" y="0">Click on “Log in”</tspan></text>
    <text id="Sign_Up_Page" data-name="Sign Up Page" transform="translate(623.217 6888.721)" fill="#fff" font-size="10" font-family="Graphik-Medium, Graphik" font-weight="500"><tspan x="-31.705" y="0">Sign Up Page</tspan></text>
    <path id="Path_1280" data-name="Path 1280" d="M294,494v542.942s-2.039,14.789,12.231,14.789H749.62" transform="translate(-47.678 6308.925)" fill="none" stroke="#909090" stroke-linecap="round" stroke-linejoin="round" stroke-width="1.5"/>
    <text id="Diary_page-2" data-name="Diary page" transform="translate(1604.999 6939.694)" fill="#fff" font-size="10" font-family="Graphik-Medium, Graphik" font-weight="500"><tspan x="-25.67" y="0">Diary page</tspan></text>
    <rect id="Rectangle_377" data-name="Rectangle 377" width="31.598" height="16.308" transform="translate(701.941 6744.826)" fill="#fff"/>
    <text id="Yes" transform="translate(708.4 6757.007)" fill="#909090" font-size="10" font-family="Graphik-Medium, Graphik" font-weight="500"><tspan x="0" y="0">Yes</tspan></text>
    <rect id="Rectangle_378" data-name="Rectangle 378" width="31.598" height="16.308" transform="translate(231.035 6675.516)" fill="#fff"/>
    <text id="Yes-2" data-name="Yes" transform="translate(240.57 6686.676)" fill="#909090" font-size="10" font-family="Graphik-Medium, Graphik" font-weight="500"><tspan x="0" y="0">Yes</tspan></text>
    <rect id="Rectangle_379" data-name="Rectangle 379" width="25.482" height="16.308" transform="translate(326.847 6744.826)" fill="#fff"/>
    <text id="Yes-3" data-name="Yes" transform="translate(332.306 6757.007)" fill="#909090" font-size="10" font-family="Graphik-Medium, Graphik" font-weight="500"><tspan x="0" y="0">Yes</tspan></text>
    <rect id="Rectangle_380" data-name="Rectangle 380" width="31.598" height="16.308" transform="translate(614.284 6818.214)" fill="#fff"/>
    <text id="No" transform="translate(622.8 6830.396)" fill="#909090" font-size="10" font-family="Graphik-Medium, Graphik" font-weight="500"><tspan x="0" y="0">No</tspan></text>
    <rect id="Rectangle_381" data-name="Rectangle 381" width="31.598" height="16.308" transform="translate(1464.362 7108.708)" fill="#fff"/>
    <text id="Yes-4" data-name="Yes" transform="translate(1469.821 7117.889)" fill="#909090" font-size="10" font-family="Graphik-Medium, Graphik" font-weight="500"><tspan x="0" y="0">Yes</tspan></text>
    <rect id="Rectangle_382" data-name="Rectangle 382" width="31.598" height="16.308" transform="translate(1273.757 6776.424)" fill="#fff"/>
    <text id="Yes-5" data-name="Yes" transform="translate(1279.216 6785.604)" fill="#909090" font-size="10" font-family="Graphik-Medium, Graphik" font-weight="500"><tspan x="0" y="0">Yes</tspan></text>
    <rect id="Rectangle_383" data-name="Rectangle 383" width="31.598" height="16.308" transform="translate(1594.83 6776.424)" fill="#fff"/>
    <text id="Yes-6" data-name="Yes" transform="translate(1602.327 6784.585)" fill="#909090" font-size="10" font-family="Graphik-Medium, Graphik" font-weight="500"><tspan x="0" y="0">Yes</tspan></text>
    <rect id="Rectangle_384" data-name="Rectangle 384" width="31.598" height="16.308" transform="translate(1634.582 6624.193)" fill="#fff"/>
    <text id="Yes-7" data-name="Yes" transform="translate(1642.079 6633.373)" fill="#909090" font-size="10" font-family="Graphik-Medium, Graphik" font-weight="500"><tspan x="0" y="0">Yes</tspan></text>
    <path id="Path_1282" data-name="Path 1282" d="M1288,807" transform="translate(-28.513 6314.959)" fill="#fff"/>
    <text id="Extra_features" data-name="Extra features" transform="translate(1716.982 6531.423)" fill="#404040" font-size="16" font-family="Graphik-Regular, Graphik"><tspan x="-51.416" y="0">Extra features</tspan></text>
    <text id="MVP" transform="translate(1681.071 6566.547)" fill="#404040" font-size="16" font-family="Graphik-Regular, Graphik"><tspan x="-16.728" y="0">MVP</tspan></text>
    <text id="Legend" transform="translate(1670 6496)" fill="#404040" font-size="21" font-family="Graphik-Regular, Graphik" letter-spacing="0.03em"><tspan x="-38.462" y="0">Legend</tspan></text>
    <circle id="Ellipse_108" data-name="Ellipse 108" cx="11" cy="11" r="11" transform="translate(1634 6549)" fill="#e6abac"/>
    <g id="Ellipse_114" data-name="Ellipse 114" transform="translate(1633 6515)" fill="none" stroke="#707070" stroke-width="1">
      <circle cx="11" cy="11" r="11" stroke="none"/>
      <circle cx="11" cy="11" r="10.5" fill="none"/>
    </g>
  </g>
</svg>
