<svg xmlns="http://www.w3.org/2000/svg" width="1339.281" height="792.931" viewBox="0 0 1339.281 792.931">
  <g id="Group_620" data-name="Group 620" transform="translate(-288 -6447.693)">
    <g id="Group_586" data-name="Group 586" transform="translate(0 1085.033)">
      <g id="Group_585" data-name="Group 585" transform="translate(288 5491.169)">
        <path id="Path_1228" data-name="Path 1228" d="M1260.3,801.827a20.227,20.227,0,0,1-18.321,20.233c-6.317.592-12.9.094-19.235.094h-46.067c-12.911,0-21.017-8.913-21.017-22.042v.086a20.081,20.081,0,0,1,13.787-19.266c5.118-1.68,10.734-1.062,16.036-1.062h20.168c7.416,0,14.827-.325,22.241-.4,5.7-.054,12.231-.636,17.785.795a19.313,19.313,0,0,1,13.386,12.939,28.668,28.668,0,0,1,1.238,8.705" transform="translate(-372.75 -369.084)" fill="#e6abac"/>
        <rect id="Rectangle_365" data-name="Rectangle 365" width="100.825" height="46.257" transform="translate(785.198 499.671)" fill="#e6abac"/>
        <path id="Path_1238" data-name="Path 1238" d="M1061.3,401.827a20.226,20.226,0,0,1-18.321,20.232c-6.316.592-12.9.094-19.235.094H977.678c-12.911,0-21.017-8.913-21.017-22.042v.086a20.081,20.081,0,0,1,13.787-19.265c5.118-1.68,10.734-1.062,16.035-1.062h20.168c7.416,0,14.827-.325,22.241-.4,5.7-.054,12.231-.637,17.785.795a19.313,19.313,0,0,1,13.386,12.939,28.672,28.672,0,0,1,1.238,8.705" transform="translate(-342.856 -308.995)" fill="#e6abac"/>
        <path id="Path_1239" data-name="Path 1239" d="M1427.3,405.827a20.226,20.226,0,0,1-18.321,20.232c-6.316.592-12.9.094-19.235.094h-46.068c-12.911,0-21.017-8.913-21.017-22.042v.086a20.081,20.081,0,0,1,13.787-19.265c5.118-1.68,10.734-1.062,16.035-1.062h20.168c7.416,0,14.827-.325,22.241-.4,5.7-.054,12.231-.636,17.785.795a19.313,19.313,0,0,1,13.386,12.939,28.668,28.668,0,0,1,1.238,8.705" transform="translate(-397.836 -309.596)" fill="#e6abac"/>
        <path id="Path_1243" data-name="Path 1243" d="M525.3,445.827a20.227,20.227,0,0,1-18.321,20.232c-6.316.592-12.9.094-19.235.094H441.678c-12.911,0-21.017-8.913-21.017-22.042v.086a20.081,20.081,0,0,1,13.787-19.265c5.118-1.68,10.734-1.062,16.035-1.062h20.168c7.416,0,14.827-.325,22.241-.4,5.7-.054,12.231-.636,17.785.795a19.313,19.313,0,0,1,13.386,12.939,28.666,28.666,0,0,1,1.238,8.705" transform="translate(-262.339 -315.605)" fill="#e6abac"/>
        <rect id="Rectangle_368" data-name="Rectangle 368" width="100.825" height="46.257" fill="#e6abac"/>
        <rect id="Rectangle_370" data-name="Rectangle 370" width="100.825" height="46.257" transform="translate(473.328 109.622)" fill="#e6abac"/>
        <rect id="Rectangle_371" data-name="Rectangle 371" width="100.825" height="46.257" transform="translate(1133.608 254.934)" fill="#e6abac"/>
        <rect id="Rectangle_372" data-name="Rectangle 372" width="100.825" height="46.257" transform="translate(774.151 71.382)" fill="#e6abac"/>
        <rect id="Rectangle_374" data-name="Rectangle 374" width="100.825" height="46.257" transform="translate(316.118 214.145)" fill="#e6abac"/>
        <path id="Path_1244" data-name="Path 1244" d="M615.276,440.16,659.042,402l46.076,38.16L660.2,477.155Z" transform="translate(-291.574 -312.404)" fill="#e6abac"/>
        <path id="Path_1245" data-name="Path 1245" d="M242.276,440.16,286.042,402l46.076,38.16L287.2,477.155Z" transform="translate(-235.542 -312.404)" fill="#e6abac"/>
        <path id="Path_1246" data-name="Path 1246" d="M1327.276,541.16,1371.042,503l46.076,38.16L1372.2,578.154Z" transform="translate(-398.53 -327.576)" fill="#e6abac"/>
        <path id="Path_1247" data-name="Path 1247" d="M1504.276,404.16,1548.042,366l46.076,38.16L1549.2,441.155Z" transform="translate(-425.118 -306.996)" fill="#e6abac"/>
        <path id="Path_1248" data-name="Path 1248" d="M1329.276,798.16,1373.042,760l46.076,38.16L1374.2,835.155Z" transform="translate(-398.83 -366.182)" fill="#e6abac"/>
      </g>
      <path id="Path_1225" data-name="Path 1225" d="M856.3,799.827a20.226,20.226,0,0,1-18.321,20.232c-6.316.592-12.9.094-19.235.094H772.678c-12.911,0-21.017-8.913-21.017-22.042v.086a20.081,20.081,0,0,1,13.787-19.265c5.118-1.68,10.734-1.062,16.035-1.062h20.168c7.416,0,14.827-.325,22.241-.4,5.7-.054,12.231-.636,17.785.795a19.313,19.313,0,0,1,13.386,12.939,28.666,28.666,0,0,1,1.238,8.705" transform="translate(-24.061 5122.385)" fill="#efefef"/>
      <path id="Path_1226" data-name="Path 1226" d="M989.3,800.827a20.227,20.227,0,0,1-18.321,20.232c-6.316.592-12.9.094-19.235.094H905.678c-12.911,0-21.017-8.913-21.017-22.042v.086a20.081,20.081,0,0,1,13.787-19.265c5.118-1.68,10.735-1.062,16.035-1.062h20.168c7.416,0,14.827-.325,22.241-.4,5.7-.054,12.231-.636,17.785.794a19.313,19.313,0,0,1,13.386,12.939,28.666,28.666,0,0,1,1.238,8.705" transform="translate(-44.04 5122.235)" fill="#efefef"/>
      <path id="Path_1227" data-name="Path 1227" d="M1128.3,801.827a20.227,20.227,0,0,1-18.321,20.233c-6.316.592-12.9.094-19.235.094h-46.067c-12.911,0-21.017-8.913-21.017-22.042v.086a20.081,20.081,0,0,1,13.787-19.266c5.118-1.68,10.734-1.062,16.035-1.062h20.168c7.416,0,14.827-.325,22.241-.4,5.7-.054,12.231-.636,17.785.795a19.312,19.312,0,0,1,13.386,12.939,28.664,28.664,0,0,1,1.238,8.705" transform="translate(-64.921 5122.085)" fill="#efefef"/>
      <rect id="Rectangle_362" data-name="Rectangle 362" width="100.825" height="46.257" transform="translate(729.886 5990.84)" fill="#efefef"/>
      <rect id="Rectangle_363" data-name="Rectangle 363" width="100.825" height="46.257" transform="translate(839.508 5990.84)" fill="#efefef"/>
      <path id="Path_1229" data-name="Path 1229" d="M760.276,1028.16,804.042,990l46.076,38.16L805.2,1065.155Z" transform="translate(-25.355 5090.436)" fill="#efefef"/>
      <g id="Group_565" data-name="Group 565" transform="translate(778.397 5956.368)">
        <line id="Line_139" data-name="Line 139" y2="26.333" transform="translate(2.18)" fill="none" stroke="#d0d0d0" stroke-linecap="round" stroke-linejoin="round" stroke-width="1.5"/>
        <path id="Path_1230" data-name="Path 1230" d="M811.438,872.85l2.18,2.18,2.18-2.18" transform="translate(-811.438 -848.334)" fill="none" stroke="#d0d0d0" stroke-linecap="round" stroke-linejoin="round" stroke-width="1.5"/>
      </g>
      <g id="Group_566" data-name="Group 566" transform="translate(778.397 6044.746)">
        <line id="Line_140" data-name="Line 140" y2="26.333" transform="translate(2.18)" fill="none" stroke="#d0d0d0" stroke-linecap="round" stroke-linejoin="round" stroke-width="1.5"/>
        <path id="Path_1231" data-name="Path 1231" d="M811.438,976.85l2.18,2.18,2.18-2.18" transform="translate(-811.438 -952.334)" fill="none" stroke="#d0d0d0" stroke-linecap="round" stroke-linejoin="round" stroke-width="1.5"/>
      </g>
      <g id="Group_567" data-name="Group 567" transform="translate(888.019 5956.368)">
        <line id="Line_141" data-name="Line 141" y2="26.333" transform="translate(2.18)" fill="none" stroke="#d0d0d0" stroke-linecap="round" stroke-linejoin="round" stroke-width="1.5"/>
        <path id="Path_1232" data-name="Path 1232" d="M940.438,872.85l2.18,2.18,2.18-2.18" transform="translate(-940.438 -848.334)" fill="none" stroke="#d0d0d0" stroke-linecap="round" stroke-linejoin="round" stroke-width="1.5"/>
      </g>
      <g id="Group_568" data-name="Group 568" transform="translate(1007.838 5956.368)">
        <line id="Line_142" data-name="Line 142" y2="26.333" transform="translate(2.18)" fill="none" stroke="#d0d0d0" stroke-linecap="round" stroke-linejoin="round" stroke-width="1.5"/>
        <path id="Path_1233" data-name="Path 1233" d="M1081.438,872.85l2.18,2.18,2.18-2.18" transform="translate(-1081.438 -848.334)" fill="none" stroke="#d0d0d0" stroke-linecap="round" stroke-linejoin="round" stroke-width="1.5"/>
      </g>
      <g id="Group_569" data-name="Group 569" transform="translate(1121.709 5956.368)">
        <line id="Line_143" data-name="Line 143" y2="26.333" transform="translate(2.18)" fill="none" stroke="#d0d0d0" stroke-linecap="round" stroke-linejoin="round" stroke-width="1.5"/>
        <path id="Path_1234" data-name="Path 1234" d="M1215.438,872.85l2.18,2.18,2.18-2.18" transform="translate(-1215.438 -848.334)" fill="none" stroke="#d0d0d0" stroke-linecap="round" stroke-linejoin="round" stroke-width="1.5"/>
      </g>
      <path id="Path_582" data-name="Path 582" d="M1215.506,758.212l2.268,2.268,2.268-2.268" transform="translate(-93.74 5125.255)" fill="none" stroke="#d0d0d0" stroke-linecap="round" stroke-linejoin="round" stroke-width="1.5"/>
      <path id="Path_584" data-name="Path 584" d="M825.99,758.212l2.268,2.268,2.268-2.268" transform="translate(-35.227 5125.255)" fill="none" stroke="#d0d0d0" stroke-linecap="round" stroke-linejoin="round" stroke-width="1.5"/>
      <path id="Path_586" data-name="Path 586" d="M984.6,730.42s1.275,9.121-7.648,9.758H920.165q-39.326,0-78.651-.05c-4.049-.008-9-.656-11.392,3.264-1.966,3.223-1.576,7.735-1.205,11.315" transform="translate(-35.621 5129.429)" fill="none" stroke="#d0d0d0" stroke-linecap="round" stroke-linejoin="round" stroke-width="1.5"/>
      <path id="Path_587" data-name="Path 587" d="M1012.234,729.926s-1.275,8.285,7.648,8.923h145.01c3.8,0,7.633-.382,11.435-.192,9.113.452,11.219,8.057,10.753,15.976" transform="translate(-63.195 5129.504)" fill="none" stroke="#d0d0d0" stroke-linecap="round" stroke-linejoin="round" stroke-width="1.5"/>
      <path id="Path_589" data-name="Path 589" d="M957.349,759.787l-2.268,2.268-2.268-2.268" transform="translate(-54.278 5125.019)" fill="none" stroke="#d0d0d0" stroke-linecap="round" stroke-linejoin="round" stroke-width="1.5"/>
      <path id="Path_590" data-name="Path 590" d="M1003.8,733.222c.077,2.577.555,17.657-14.564,16.807h-27.4s-6.373-.636-6.373,7.009" transform="translate(-54.676 5129.009)" fill="none" stroke="#d0d0d0" stroke-linecap="round" stroke-linejoin="round" stroke-width="1.5"/>
      <path id="Path_589-2" data-name="Path 589" d="M1070.567,758.787l-2.267,2.268-2.268-2.268" transform="translate(-71.286 5125.169)" fill="none" stroke="#d0d0d0" stroke-linecap="round" stroke-linejoin="round" stroke-width="1.5"/>
      <path id="Path_590-2" data-name="Path 590" d="M1060.173,756.038c0-7.645-6.373-7.009-6.373-7.009h-27.4c-15.119.85-14.641-14.23-14.564-16.807" transform="translate(-63.141 5129.159)" fill="none" stroke="#d0d0d0" stroke-linecap="round" stroke-linejoin="round" stroke-width="1.5"/>
      <text id="Settings" transform="translate(779.276 5924.721)" fill="#8b8b8b" font-size="8" font-family="Gilroy-Bold, Gilroy" font-weight="700"><tspan x="-15.236" y="0">Settings</tspan></text>
      <text id="View_your_wishlist" data-name="View your 
wishlist" transform="translate(890.831 5918.589)" fill="#8b8b8b" font-size="8" font-family="Gilroy-Bold, Gilroy" font-weight="700"><tspan x="-18.948" y="0">View your </tspan><tspan x="-13.48" y="10">wishlist</tspan></text>
      <text id="Wishlist_page" data-name="Wishlist page" transform="translate(883.235 6016.314)" fill="#8b8b8b" font-size="8" font-family="Gilroy-Bold, Gilroy" font-weight="700"><tspan x="-25.152" y="0">Wishlist page</tspan></text>
      <rect id="Rectangle_364" data-name="Rectangle 364" width="100.825" height="46.257" transform="translate(961.876 5990.84)" fill="#efefef"/>
      <text id="Stamps_page" data-name="Stamps page" transform="translate(1006.453 6016.314)" fill="#8b8b8b" font-size="8" font-family="Gilroy-Bold, Gilroy" font-weight="700"><tspan x="-24.788" y="0">Stamps page</tspan></text>
      <text id="Diaries_page" data-name="Diaries page" transform="translate(1119.488 6016.314)" fill="#fff" font-size="8" font-family="Gilroy-Bold, Gilroy" font-weight="700"><tspan x="-23.696" y="0">Diaries page</tspan></text>
      <text id="Settings_page" data-name="Settings page" transform="translate(774.314 6016.314)" fill="#8b8b8b" font-size="8" font-family="Gilroy-Bold, Gilroy" font-weight="700"><tspan x="-26.072" y="0">Settings page</tspan></text>
      <text id="View_diaries_you_wrote" data-name="View diaries 
you wrote" transform="translate(1119.173 5919.439)" fill="#fff" font-size="8" font-family="Gilroy-Bold, Gilroy" font-weight="700"><tspan x="-23.332" y="0">View diaries </tspan><tspan x="-18.236" y="10">you wrote</tspan></text>
      <text id="Your_stamps_of_the_places_you_visited" data-name="Your stamps of the 
places you visited" transform="translate(1012.34 5920.656)" fill="#8b8b8b" font-size="8" font-family="Gilroy-Bold, Gilroy" font-weight="700"><tspan x="-35.416" y="0">Your stamps of the </tspan><tspan x="-33.092" y="10">places you visited</tspan></text>
      <g id="Group_570" data-name="Group 570" transform="translate(889.481 5515.756)">
        <path id="Path_1235" data-name="Path 1235" d="M1210.906,325.925l455.315-.425a9.142,9.142,0,0,1,1.469.113c2.714.441,10.855,2.491,11.824,11.283a9.048,9.048,0,0,1,.047,1l-5.1,578.2s4.249,15.3-10.2,15.3H958.946s-14.446.85-14.446-15.3V862.986" transform="translate(-942.51 -325.5)" fill="none" stroke="#d0d0d0" stroke-linecap="round" stroke-linejoin="round" stroke-width="1.5"/>
        <path id="Path_1236" data-name="Path 1236" d="M946.519,959.31l-2.18-2.18-2.18,2.18" transform="translate(-942.159 -420.383)" fill="none" stroke="#d0d0d0" stroke-linecap="round" stroke-linejoin="round" stroke-width="1.5"/>
      </g>
      <rect id="Rectangle_366" data-name="Rectangle 366" width="7.648" height="11.897" transform="translate(1298.091 5508.534)" fill="#fff"/>
      <rect id="Rectangle_367" data-name="Rectangle 367" width="7.648" height="11.897" transform="translate(1377.12 5508.534)" fill="#fff"/>
      <g id="Group_571" data-name="Group 571" transform="translate(338.21 5544.225)">
        <line id="Line_144" data-name="Line 144" x2="0.003" y2="31.432" transform="translate(2.177)" fill="none" stroke="#d0d0d0" stroke-linecap="round" stroke-linejoin="round" stroke-width="1.5"/>
        <path id="Path_1237" data-name="Path 1237" d="M293.438,393.85l2.18,2.18,2.18-2.18" transform="translate(-293.438 -364.235)" fill="none" stroke="#d0d0d0" stroke-linecap="round" stroke-linejoin="round" stroke-width="1.5"/>
      </g>
      <path id="Path_1240" data-name="Path 1240" d="M1062.3,496.827a20.226,20.226,0,0,1-18.321,20.232c-6.316.592-12.9.094-19.235.094H978.678c-12.911,0-21.017-8.913-21.017-22.042v.086a20.081,20.081,0,0,1,13.787-19.265c5.118-1.68,10.734-1.062,16.035-1.062h20.168c7.416,0,14.827-.325,22.241-.4,5.7-.054,12.231-.636,17.785.794a19.313,19.313,0,0,1,13.386,12.939,28.669,28.669,0,0,1,1.238,8.705" transform="translate(-55.006 5167.902)" fill="#efefef"/>
      <path id="Path_1241" data-name="Path 1241" d="M1061.3,572.827a20.227,20.227,0,0,1-18.321,20.232c-6.316.592-12.9.094-19.235.094H977.678c-12.911,0-21.017-8.913-21.017-22.042v.086a20.081,20.081,0,0,1,13.787-19.265c5.118-1.68,10.734-1.062,16.035-1.062h20.168c7.416,0,14.827-.325,22.241-.4,5.7-.055,12.231-.637,17.785.794a19.313,19.313,0,0,1,13.386,12.939,28.672,28.672,0,0,1,1.238,8.705" transform="translate(-54.856 5156.486)" fill="#efefef"/>
      <path id="Path_1242" data-name="Path 1242" d="M1060.3,322.827a20.226,20.226,0,0,1-18.321,20.232c-6.316.592-12.9.094-19.235.094H976.678c-12.911,0-21.017-8.913-21.017-22.042v.086a20.081,20.081,0,0,1,13.787-19.265c5.118-1.68,10.734-1.062,16.035-1.062h20.168c7.416,0,14.827-.325,22.241-.4,5.7-.054,12.231-.637,17.785.794a19.313,19.313,0,0,1,13.386,12.939,28.664,28.664,0,0,1,1.238,8.705" transform="translate(-54.706 5194.041)" fill="#efefef"/>
      <rect id="Rectangle_373" data-name="Rectangle 373" width="100.825" height="46.257" transform="translate(1062.151 5491.169)" fill="#efefef"/>
      <path id="Path_1249" data-name="Path 1249" d="M1216.276,201.251l37.97-33.107,39.975,33.107-38.973,32.1Z" transform="translate(-93.855 5213.895)" fill="#efefef"/>
      <path id="Path_1250" data-name="Path 1250" d="M1102.276,201.251l37.97-33.107,39.975,33.107-38.973,32.1Z" transform="translate(-76.73 5213.895)" fill="#efefef"/>
      <path id="Path_1251" data-name="Path 1251" d="M1428.276,319.251l37.97-33.107,39.975,33.107-38.972,32.1Z" transform="translate(-125.702 5196.169)" fill="#efefef"/>
      <g id="Group_572" data-name="Group 572" transform="translate(390.525 5616.325)">
        <line id="Line_145" data-name="Line 145" x2="50.629" transform="translate(0 2.18)" fill="none" stroke="#d0d0d0" stroke-linecap="round" stroke-linejoin="round" stroke-width="1.5"/>
        <path id="Path_1252" data-name="Path 1252" d="M412.441,448.207l2.18-2.18-2.18-2.18" transform="translate(-363.629 -443.846)" fill="none" stroke="#d0d0d0" stroke-linecap="round" stroke-linejoin="round" stroke-width="1.5"/>
      </g>
      <g id="Group_575" data-name="Group 575" transform="translate(1010.015 5584.034)">
        <line id="Line_148" data-name="Line 148" x2="43.831" transform="translate(0 2.18)" fill="none" stroke="#d0d0d0" stroke-linecap="round" stroke-linejoin="round" stroke-width="1.5"/>
        <path id="Path_1255" data-name="Path 1255" d="M1133.441,410.207l2.181-2.18-2.181-2.18" transform="translate(-1091.427 -405.846)" fill="none" stroke="#d0d0d0" stroke-linecap="round" stroke-linejoin="round" stroke-width="1.5"/>
      </g>
      <g id="Group_576" data-name="Group 576" transform="translate(947.503 5754.12)">
        <line id="Line_149" data-name="Line 149" y2="30.582" transform="translate(2.18 0)" fill="none" stroke="#d0d0d0" stroke-linecap="round" stroke-linejoin="round" stroke-width="1.5"/>
        <path id="Path_1256" data-name="Path 1256" d="M1010.438,639.85l2.18,2.18,2.18-2.18" transform="translate(-1010.438 -611.085)" fill="none" stroke="#d0d0d0" stroke-linecap="round" stroke-linejoin="round" stroke-width="1.5"/>
      </g>
      <g id="Group_577" data-name="Group 577" transform="translate(559.631 5618.874)">
        <line id="Line_150" data-name="Line 150" x2="43.831" transform="translate(0 2.18)" fill="none" stroke="#d0d0d0" stroke-linecap="round" stroke-linejoin="round" stroke-width="1.5"/>
        <path id="Path_1257" data-name="Path 1257" d="M603.441,451.207l2.18-2.18-2.18-2.18" transform="translate(-561.427 -446.846)" fill="none" stroke="#d0d0d0" stroke-linecap="round" stroke-linejoin="round" stroke-width="1.5"/>
      </g>
      <g id="Group_578" data-name="Group 578" transform="translate(1166.375 5585.734)">
        <line id="Line_151" data-name="Line 151" x2="43.831" transform="translate(0 2.18)" fill="none" stroke="#d0d0d0" stroke-linecap="round" stroke-linejoin="round" stroke-width="1.5"/>
        <path id="Path_1258" data-name="Path 1258" d="M1317.441,412.207l2.18-2.18-2.18-2.18" transform="translate(-1275.427 -407.846)" fill="none" stroke="#d0d0d0" stroke-linecap="round" stroke-linejoin="round" stroke-width="1.5"/>
      </g>
      <path id="Path_1259" data-name="Path 1259" d="M1208.519,448.309l-2.18-2.18-2.18,2.18" transform="translate(-92.035 5172.136)" fill="none" stroke="#d0d0d0" stroke-linecap="round" stroke-linejoin="round" stroke-width="1.5"/>
      <g id="Group_579" data-name="Group 579" transform="translate(1319.335 5585.734)">
        <line id="Line_152" data-name="Line 152" x2="43.831" transform="translate(0 2.18)" fill="none" stroke="#d0d0d0" stroke-linecap="round" stroke-linejoin="round" stroke-width="1.5"/>
        <path id="Path_1260" data-name="Path 1260" d="M1497.442,412.207l2.18-2.18-2.18-2.18" transform="translate(-1455.427 -407.846)" fill="none" stroke="#d0d0d0" stroke-linecap="round" stroke-linejoin="round" stroke-width="1.5"/>
      </g>
      <g id="Group_580" data-name="Group 580" transform="translate(1259.373 5630.902)">
        <line id="Line_153" data-name="Line 153" y2="27.183" transform="translate(2.18)" fill="none" stroke="#d0d0d0" stroke-linecap="round" stroke-linejoin="round" stroke-width="1.5"/>
        <path id="Path_1261" data-name="Path 1261" d="M1377.438,490.85l2.18,2.18,2.18-2.18" transform="translate(-1377.438 -465.484)" fill="none" stroke="#d0d0d0" stroke-linecap="round" stroke-linejoin="round" stroke-width="1.5"/>
      </g>
      <path id="Path_1262" data-name="Path 1262" d="M1627.438,588.85l2.18,2.18,2.18-2.18" transform="translate(-155.619 5150.697)" fill="none" stroke="#d0d0d0" stroke-linecap="round" stroke-linejoin="round" stroke-width="1.5"/>
      <g id="Group_581" data-name="Group 581" transform="translate(704.944 5616.325)">
        <line id="Line_154" data-name="Line 154" x2="48.93" transform="translate(0 2.18)" fill="none" stroke="#d0d0d0" stroke-linecap="round" stroke-linejoin="round" stroke-width="1.5"/>
        <path id="Path_1263" data-name="Path 1263" d="M780.441,448.207l2.18-2.18-2.18-2.18" transform="translate(-733.328 -443.846)" fill="none" stroke="#d0d0d0" stroke-linecap="round" stroke-linejoin="round" stroke-width="1.5"/>
      </g>
      <path id="Path_1264" data-name="Path 1264" d="M779.441,465.207l2.18-2.18-2.18-2.18" transform="translate(-28.234 5169.925)" fill="none" stroke="#d0d0d0" stroke-linecap="round" stroke-linejoin="round" stroke-width="1.5"/>
      <g id="Group_582" data-name="Group 582" transform="translate(1184.22 5920.547)">
        <line id="Line_155" data-name="Line 155" x2="30.235" transform="translate(0 2.18)" fill="none" stroke="#d0d0d0" stroke-linecap="round" stroke-linejoin="round" stroke-width="1.5"/>
        <path id="Path_1265" data-name="Path 1265" d="M1322.442,806.207l2.18-2.18-2.18-2.18" transform="translate(-1294.024 -801.846)" fill="none" stroke="#d0d0d0" stroke-linecap="round" stroke-linejoin="round" stroke-width="1.5"/>
      </g>
      <path id="Path_1266" data-name="Path 1266" d="M1554.441,640.207l2.18-2.18-2.18-2.18" transform="translate(-144.654 5143.637)" fill="none" stroke="#d0d0d0" stroke-linecap="round" stroke-linejoin="round" stroke-width="1.5"/>
      <path id="Path_1267" data-name="Path 1267" d="M1554.441,622.207l2.18-2.18-2.18-2.18" transform="translate(-144.654 5146.34)" fill="none" stroke="#d0d0d0" stroke-linecap="round" stroke-linejoin="round" stroke-width="1.5"/>
      <g id="Group_583" data-name="Group 583" transform="translate(1010.015 5511.802)">
        <line id="Line_156" data-name="Line 156" x2="43.831" transform="translate(0 2.18)" fill="none" stroke="#d0d0d0" stroke-linecap="round" stroke-linejoin="round" stroke-width="1.5"/>
        <path id="Path_1268" data-name="Path 1268" d="M1133.441,325.207l2.181-2.18-2.181-2.18" transform="translate(-1091.427 -320.846)" fill="none" stroke="#d0d0d0" stroke-linecap="round" stroke-linejoin="round" stroke-width="1.5"/>
      </g>
      <g id="Group_584" data-name="Group 584" transform="translate(654.329 5661.495)">
        <line id="Line_157" data-name="Line 157" y2="34.831" transform="translate(2.18)" fill="none" stroke="#d0d0d0" stroke-linecap="round" stroke-linejoin="round" stroke-width="1.5"/>
        <path id="Path_1269" data-name="Path 1269" d="M665.438,535.85l2.18,2.18,2.18-2.18" transform="translate(-665.438 -502.836)" fill="none" stroke="#d0d0d0" stroke-linecap="round" stroke-linejoin="round" stroke-width="1.5"/>
      </g>
      <path id="Path_577" data-name="Path 577" d="M925.745,440.163s9.252.305,9.891-8.617v-27.4s-.638-6.373,7.009-6.373" transform="translate(-50.212 5179.4)" fill="none" stroke="#d0d0d0" stroke-linecap="round" stroke-linejoin="round" stroke-width="1.5"/>
      <path id="Path_582-2" data-name="Path 582" d="M940.141,325.6l2.268-2.268-2.268-2.268" transform="translate(-52.375 5190.924)" fill="none" stroke="#d0d0d0" stroke-linecap="round" stroke-linejoin="round" stroke-width="1.5"/>
      <path id="Path_583" data-name="Path 583" d="M944.171,399.66l2.268-2.268-2.268-2.268" transform="translate(-52.98 5179.798)" fill="none" stroke="#d0d0d0" stroke-linecap="round" stroke-linejoin="round" stroke-width="1.5"/>
      <path id="Path_584-2" data-name="Path 584" d="M940.141,583.113l2.268-2.268-2.268-2.268" transform="translate(-52.375 5152.239)" fill="none" stroke="#d0d0d0" stroke-linecap="round" stroke-linejoin="round" stroke-width="1.5"/>
      <path id="Path_585" data-name="Path 585" d="M924.606,440.163c2.577.076,10.225.229,10.858-8.617v-27.4s-.638-6.373,7.009-6.373" transform="translate(-50.041 5179.4)" fill="none" stroke="#d0d0d0" stroke-linecap="round" stroke-linejoin="round" stroke-width="1.5"/>
      <path id="Path_586-2" data-name="Path 586" d="M923.349,447.719s9.121-1.275,9.758,7.648V555.39s-.638,6.373,7.009,6.373" transform="translate(-49.852 5171.907)" fill="none" stroke="#d0d0d0" stroke-linecap="round" stroke-linejoin="round" stroke-width="1.5"/>
      <path id="Path_587-2" data-name="Path 587" d="M922.855,429.04s8.285,1.275,8.923-7.648V330.08s-.636-6.373,7.011-6.373" transform="translate(-49.778 5190.526)" fill="none" stroke="#d0d0d0" stroke-linecap="round" stroke-linejoin="round" stroke-width="1.5"/>
      <path id="Path_588" data-name="Path 588" d="M926.886,447.558s9.252-.305,9.889,8.616v27.4s-.637,6.373,7.009,6.373" transform="translate(-50.383 5171.921)" fill="none" stroke="#d0d0d0" stroke-linecap="round" stroke-linejoin="round" stroke-width="1.5"/>
      <path id="Path_589-3" data-name="Path 589" d="M945.31,494.754l2.268,2.268-2.268,2.268" transform="translate(-53.151 5164.832)" fill="none" stroke="#d0d0d0" stroke-linecap="round" stroke-linejoin="round" stroke-width="1.5"/>
      <path id="Path_590-3" data-name="Path 590" d="M925.745,447.555c2.577-.077,10.227-.229,10.859,8.616v27.4s-.637,6.373,7.009,6.373" transform="translate(-50.212 5171.924)" fill="none" stroke="#d0d0d0" stroke-linecap="round" stroke-linejoin="round" stroke-width="1.5"/>
      <path id="Path_589-4" data-name="Path 589" d="M913.032,148.49l2.268-2.268,2.267,2.268" transform="translate(-48.302 5217.188)" fill="none" stroke="#d0d0d0" stroke-linecap="round" stroke-linejoin="round" stroke-width="1.5"/>
      <path id="Path_590-4" data-name="Path 590" d="M1204.833,280.568c-.077-2.577-.555-17.657,14.564-16.807h27.4s6.374.636,6.374-7.009" transform="translate(-92.134 5200.584)" fill="none" stroke="#d0d0d0" stroke-linecap="round" stroke-linejoin="round" stroke-width="1.5"/>
      <path id="Path_589-5" data-name="Path 589" d="M1145.813,258.812l2.268-2.268,2.268,2.268" transform="translate(-83.27 5200.615)" fill="none" stroke="#d0d0d0" stroke-linecap="round" stroke-linejoin="round" stroke-width="1.5"/>
      <path id="Path_589-6" data-name="Path 589" d="M1258.813,258.812l2.268-2.268,2.268,2.268" transform="translate(-100.245 5200.615)" fill="none" stroke="#d0d0d0" stroke-linecap="round" stroke-linejoin="round" stroke-width="1.5"/>
      <path id="Path_589-7" data-name="Path 589" d="M1421.148,323.21l2.268,2.267-2.268,2.268" transform="translate(-124.631 5190.601)" fill="none" stroke="#d0d0d0" stroke-linecap="round" stroke-linejoin="round" stroke-width="1.5"/>
      <path id="Path_590-5" data-name="Path 590" d="M1148.461,257.752c0,7.645,6.373,7.009,6.373,7.009h27.4c15.12-.85,14.641,14.23,14.564,16.807" transform="translate(-83.668 5200.434)" fill="none" stroke="#d0d0d0" stroke-linecap="round" stroke-linejoin="round" stroke-width="1.5"/>
      <path id="Path_1270" data-name="Path 1270" d="M1089,500.979h121.519s13.6-2.549,13.6,16.146v72.656s-2.974,13.6,18.27,12.747h243.462" transform="translate(-74.736 5163.914)" fill="none" stroke="#d0d0d0" stroke-linecap="round" stroke-linejoin="round" stroke-width="1.5"/>
      <path id="Path_1271" data-name="Path 1271" d="M1441,538.431h84.553s12.747,3.4,12.747-16.146V464.5" transform="translate(-127.613 5169.377)" fill="none" stroke="#d0d0d0" stroke-linecap="round" stroke-linejoin="round" stroke-width="1.5"/>
      <path id="Path_1272" data-name="Path 1272" d="M1306.425,532.828c0-14.3-.025-28.6.013-42.9.031-11.309,3.453-21.738-11.061-20.832H1213.8s-6.8,1.7-6.8-8.5V447" transform="translate(-92.462 5172.005)" fill="none" stroke="#d0d0d0" stroke-linecap="round" stroke-linejoin="round" stroke-width="1.5"/>
      <path id="Path_1273" data-name="Path 1273" d="M295.519,496.309l-2.18-2.18-2.18,2.18" transform="translate(45.115 5164.926)" fill="none" stroke="#d0d0d0" stroke-linecap="round" stroke-linejoin="round" stroke-width="1.5"/>
      <path id="Path_1274" data-name="Path 1274" d="M1557.519,466.309l-2.18-2.18-2.18,2.18" transform="translate(-144.462 5169.432)" fill="none" stroke="#d0d0d0" stroke-linecap="round" stroke-linejoin="round" stroke-width="1.5"/>
      <path id="Path_1275" data-name="Path 1275" d="M1617,411h5.1s5.949,0,5.949,9.348V562.261" transform="translate(-154.052 5177.413)" fill="none" stroke="#d0d0d0" stroke-linecap="round" stroke-linejoin="round" stroke-width="1.5"/>
      <path id="Path_1276" data-name="Path 1276" d="M1438,779.913h59.485c0-8.336.641-126.219.443-134.505-.127-5.377,3.842-7.408,8.9-7.408h31.442" transform="translate(-127.162 5143.313)" fill="none" stroke="#d0d0d0" stroke-linecap="round" stroke-linejoin="round" stroke-width="1.5"/>
      <path id="Path_1277" data-name="Path 1277" d="M732.5,553.577c14.316,0,19.97,2.974,19.545-17V472s-1.7-8.5,7.648-8.5h13.6" transform="translate(-21.183 5169.526)" fill="none" stroke="#d0d0d0" stroke-linecap="round" stroke-linejoin="round" stroke-width="1.5"/>
      <text id="Log_in_Page" data-name="Log in Page" transform="translate(311.159 5517.494)" fill="#fff" font-size="8" font-family="Gilroy-Bold, Gilroy" font-weight="700"><tspan x="0" y="0">Log in Page</tspan></text>
      <text id="Start" transform="translate(314 5476.967)" fill="#b9b9b9" font-size="16" font-family="Gilroy-Bold, Gilroy" font-weight="700"><tspan x="0" y="0">Start</tspan></text>
      <text id="Home_page" data-name="Home page" transform="translate(789.837 5626.449)" fill="#fff" font-size="8" font-family="Gilroy-Bold, Gilroy" font-weight="700"><tspan x="0" y="0">Home page</tspan></text>
      <rect id="Rectangle_376" data-name="Rectangle 376" width="100.825" height="46.257" transform="translate(904.091 5796.24)" fill="#efefef"/>
      <text id="Profile_page" data-name="Profile page" transform="translate(931.567 5820.865)" fill="#8b8b8b" font-size="8" font-family="Gilroy-Bold, Gilroy" font-weight="700"><tspan x="0" y="0">Profile page</tspan></text>
      <text id="Search_for_diaries" data-name="Search for 
diaries" transform="translate(952.716 5513.611)" fill="#8b8b8b" font-size="8" font-family="Gilroy-Bold, Gilroy" font-weight="700"><tspan x="-20.02" y="0">Search for </tspan><tspan x="-12.512" y="10">diaries</tspan></text>
      <text id="Diary_Page" data-name="Diary Page" transform="translate(1110.776 5517.011)" fill="#8b8b8b" font-size="8" font-family="Gilroy-Bold, Gilroy" font-weight="700"><tspan x="-20.472" y="0">Diary Page</tspan></text>
      <text id="Like_a_journal" data-name="Like a 
journal" transform="translate(1161.635 5411.614)" fill="#8b8b8b" font-size="7" font-family="Gilroy-Bold, Gilroy" font-weight="700"><tspan x="-10.241" y="0">Like a </tspan><tspan x="-11.344" y="8">journal</tspan></text>
      <text id="Comment_on_a_journal" data-name="Comment 
on a 
journal" transform="translate(1063.962 5408.881)" fill="#8b8b8b" font-size="7" font-family="Gilroy-Bold, Gilroy" font-weight="700"><tspan x="-16.842" y="0">Comment </tspan><tspan x="-8.04" y="8">on a </tspan><tspan x="-11.344" y="16">journal</tspan></text>
      <text id="Add_journal_to_wishlist" data-name="Add journal 
to wishlist" transform="translate(1339.558 5513.587)" fill="#8b8b8b" font-size="7" font-family="Gilroy-Bold, Gilroy" font-weight="700"><tspan x="-19.764" y="0">Add journal </tspan><tspan x="-16.016" y="8">to wishlist</tspan></text>
      <text id="Publish" transform="translate(1410.221 5589.7)" fill="#fff" font-size="7" font-family="Gilroy-Bold, Gilroy" font-weight="700"><tspan x="-11.62" y="0">Publish</tspan></text>
      <text id="Add_more_days" data-name="Add more
 days" transform="translate(1261.994 5702.538)" fill="#fff" font-size="7" font-family="Gilroy-Bold, Gilroy" font-weight="700"><tspan x="-15.82" y="0">Add more</tspan><tspan x="-8.613" y="8" xml:space="preserve"> days</tspan></text>
      <text id="View_specific_diary_" data-name="View 
specific 
diary?" transform="translate(1263.06 5917.049)" fill="#fff" font-size="7" font-family="Gilroy-Bold, Gilroy" font-weight="700"><tspan x="-8.593" y="0">View </tspan><tspan x="-13.265" y="8">specific </tspan><tspan x="-10.266" y="16">diary?</tspan></text>
      <text id="Add_date_location_pictures" data-name="Add date, location, 
pictures" transform="translate(1263.565 5585.418)" fill="#fff" font-size="8" font-family="Gilroy-Bold, Gilroy" font-weight="700"><tspan x="-36.612" y="0">Add date, location, </tspan><tspan x="-14.92" y="10">pictures</tspan></text>
      <text id="Write_Diary" data-name="Write Diary" transform="translate(953.05 5584.259)" fill="#fff" font-size="8" font-family="Gilroy-Bold, Gilroy" font-weight="700"><tspan x="-20.932" y="0">Write Diary</tspan></text>
      <text id="Add_a_day_page" data-name="Add a day page" transform="translate(1108.695 5587.359)" fill="#fff" font-size="8" font-family="Gilroy-Bold, Gilroy" font-weight="700"><tspan x="-30.072" y="0">Add a day page</tspan></text>
      <text id="Go_to_notifications" data-name="Go to 
notifications" transform="translate(954.751 5661.473)" fill="#8b8b8b" font-size="8" font-family="Gilroy-Bold, Gilroy" font-weight="700"><tspan x="-11.34" y="0">Go to </tspan><tspan x="-23.004" y="10">notifications</tspan></text>
      <text id="View_personal_profile" data-name="View personal
profile" transform="translate(953.502 5726.907)" fill="#8b8b8b" font-size="8" font-family="Gilroy-Bold, Gilroy" font-weight="700"><tspan x="-25.996" y="0">View personal</tspan><tspan x="-11.704" y="10">profile</tspan></text>
      <text id="Log_out_of_profile" data-name="Log out of 
profile" transform="translate(778.328 6115.922)" fill="#8b8b8b" font-size="8" font-family="Gilroy-Bold, Gilroy" font-weight="700"><tspan x="-19.62" y="0">Log out of </tspan><tspan x="-11.704" y="10">profile</tspan></text>
      <text id="Has_Account_" data-name="Has 
Account?" transform="translate(654.809 5613.519)" fill="#fff" font-size="8" font-family="Gilroy-Bold, Gilroy" font-weight="700"><tspan x="-8.008" y="0">Has </tspan><tspan x="-17.552" y="10">Account?</tspan></text>
      <text id="Log_in_" data-name="Log in?" transform="translate(337.089 5620.316)" fill="#fff" font-size="8" font-family="Gilroy-Bold, Gilroy" font-weight="700"><tspan x="-13.088" y="0">Log in?</tspan></text>
      <text id="Click_on_Log_in_" data-name="Click on “Log in”" transform="translate(495.337 5622.866)" fill="#fff" font-size="8" font-family="Gilroy-Bold, Gilroy" font-weight="700"><tspan x="-30.36" y="0">Click on “Log in”</tspan></text>
      <text id="Sign_Up_Page" data-name="Sign Up Page" transform="translate(650.394 5731.638)" fill="#fff" font-size="8" font-family="Gilroy-Bold, Gilroy" font-weight="700"><tspan x="-24.808" y="0">Sign Up Page</tspan></text>
      <path id="Path_1280" data-name="Path 1280" d="M293.985,494V930.787s-1.7,11.9,10.2,11.9H673.837" transform="translate(44.703 5164.945)" fill="none" stroke="#d0d0d0" stroke-linecap="round" stroke-linejoin="round" stroke-width="1.5"/>
      <text id="Diary_page-2" data-name="Diary page" transform="translate(1468.249 5771.633)" fill="#fff" font-size="8" font-family="Gilroy-Bold, Gilroy" font-weight="700"><tspan x="-20.748" y="0">Diary page</tspan></text>
      <rect id="Rectangle_377" data-name="Rectangle 377" width="26.343" height="13.596" transform="translate(718.54 5610.507)" fill="#fff"/>
      <text id="Yes" transform="translate(723.091 5618.993)" fill="#d0d0d0" font-size="7" font-family="Gilroy-Medium" font-weight="500"><tspan x="0" y="0">Yes</tspan></text>
      <rect id="Rectangle_378" data-name="Rectangle 378" width="26.343" height="13.596" transform="translate(325.941 5552.723)" fill="#fff"/>
      <text id="Yes-2" data-name="Yes" transform="translate(333.892 5560.357)" fill="#d0d0d0" font-size="7" font-family="Gilroy-Medium" font-weight="500"><tspan x="0" y="0">Yes</tspan></text>
      <rect id="Rectangle_379" data-name="Rectangle 379" width="21.245" height="13.596" transform="translate(405.821 5610.507)" fill="#fff"/>
      <text id="Yes-3" data-name="Yes" transform="translate(410.372 5618.993)" fill="#d0d0d0" font-size="7" font-family="Gilroy-Medium" font-weight="500"><tspan x="0" y="0">Yes</tspan></text>
      <rect id="Rectangle_380" data-name="Rectangle 380" width="26.343" height="13.596" transform="translate(645.459 5671.691)" fill="#fff"/>
      <text id="No" transform="translate(652.56 5680.177)" fill="#d0d0d0" font-size="7" font-family="Gilroy-Medium" font-weight="500"><tspan x="0" y="0">No</tspan></text>
      <rect id="Rectangle_381" data-name="Rectangle 381" width="26.343" height="13.596" transform="translate(1354.177 5913.879)" fill="#fff"/>
      <text id="Yes-4" data-name="Yes" transform="translate(1358.728 5922.364)" fill="#d0d0d0" font-size="7" font-family="Gilroy-Medium" font-weight="500"><tspan x="0" y="0">Yes</tspan></text>
      <rect id="Rectangle_382" data-name="Rectangle 382" width="26.343" height="13.596" transform="translate(1195.267 5636.851)" fill="#fff"/>
      <text id="Yes-5" data-name="Yes" transform="translate(1199.818 5645.335)" fill="#d0d0d0" font-size="7" font-family="Gilroy-Medium" font-weight="500"><tspan x="0" y="0">Yes</tspan></text>
      <rect id="Rectangle_383" data-name="Rectangle 383" width="26.343" height="13.596" transform="translate(1462.948 5636.851)" fill="#fff"/>
      <text id="Yes-6" data-name="Yes" transform="translate(1469.199 5644.486)" fill="#d0d0d0" font-size="7" font-family="Gilroy-Medium" font-weight="500"><tspan x="0" y="0">Yes</tspan></text>
      <rect id="Rectangle_384" data-name="Rectangle 384" width="26.343" height="13.596" transform="translate(1496.09 5509.934)" fill="#fff"/>
      <text id="Yes-7" data-name="Yes" transform="translate(1502.34 5518.419)" fill="#d0d0d0" font-size="7" font-family="Gilroy-Medium" font-weight="500"><tspan x="0" y="0">Yes</tspan></text>
      <path id="Path_1282" data-name="Path 1282" d="M1288,807" transform="translate(-104.63 5117.926)" fill="#fff"/>
      <text id="Extra_features" data-name="Extra features" transform="translate(1491.401 5424.416)" fill="#404040" font-size="14" font-family="Graphik-Regular, Graphik"><tspan x="-44.989" y="0">Extra features</tspan></text>
      <text id="MVP" transform="translate(1595.702 5427.021)" fill="#404040" font-size="14" font-family="Graphik-Regular, Graphik"><tspan x="-14.637" y="0">MVP</tspan></text>
      <text id="Legend" transform="translate(1464.513 5390.861)" fill="#404040" font-size="24" font-family="Graphik-Medium, Graphik" font-weight="500" letter-spacing="0.03em"><tspan x="-44.7" y="0">Legend</tspan></text>
      <circle id="Ellipse_108" data-name="Ellipse 108" cx="9.5" cy="9.5" r="9.5" transform="translate(1558 5412.967)" fill="#e6abac"/>
      <ellipse id="Ellipse_107" data-name="Ellipse 107" cx="10" cy="9" rx="10" ry="9" transform="translate(1420 5410.967)" fill="#efefef"/>
    </g>
  </g>
</svg>
