<svg xmlns="http://www.w3.org/2000/svg" width="945" height="356.902" viewBox="0 0 945 356.902">
  <g id="Group_624" data-name="Group 624" transform="translate(-389.5 -10492.598)">
    <g id="Group_587" data-name="Group 587" transform="translate(-44 1317)">
      <g id="Rectangle_318" data-name="Rectangle 318" transform="translate(472 9176)" fill="#fff" stroke="#707070" stroke-width="1">
        <rect width="906" height="316" stroke="none"/>
        <rect x="0.5" y="0.5" width="905" height="315" fill="none"/>
      </g>
      <g id="Group_50" data-name="Group 50" transform="translate(548.17 9236.925) rotate(2)">
        <path id="Path_45" data-name="Path 45" d="M156.32,0l8.9,116.226-28.8,11.71L97.623,79.7l5.874,61.618-28.792,11.7L0,63.558,32.908,50.178,70.131,99.293,63.756,37.631l28.792-11.71,38.479,48.6-7.6-61.149Z" transform="translate(0 24.797)" fill="#ddadad"/>
        <path id="Path_46" data-name="Path 46" d="M117.406.866l4.045,110.947-33.289,1.212-.38-10.426a41.7,41.7,0,0,1-32.567,14.735C26.148,118.4,1.252,93.75.045,60.688S21.877,1.252,50.945.172A41.714,41.714,0,0,1,84.5,12.5L84.129,2.073ZM86.146,57.552C85.54,40.905,74.067,30.887,58.753,31.444s-26.026,11.39-25.42,28.032S45.412,86.14,60.726,85.584,86.741,74.2,86.146,57.558Z" transform="translate(172.509 18.128)" fill="#ddadad"/>
        <path id="Path_47" data-name="Path 47" d="M114.579,56.416,105.663,124l-33.018-4.353,8.277-62.731c1.8-13.649-5.946-21.171-16.509-22.56-12.112-1.6-21.4,4.342-23.463,19.975l-7.929,60.1L0,110.071,14.52,0,47.538,4.353,46.172,14.7C53.192,7.34,64.9,3.51,79.427,5.428,101.657,8.348,118.5,26.693,114.579,56.416Z" transform="translate(306.541 20.339)" fill="#ddadad"/>
        <path id="Path_48" data-name="Path 48" d="M129.981,3.609,113.146,158.128l-33.112-3.609,1.13-10.376a41.663,41.663,0,0,1-34.358,9.88C17.887,150.871-3.185,122.894.4,90S30.589,34.325,59.5,37.471A41.711,41.711,0,0,1,90.928,54.52L96.868,0ZM86.046,99.337c1.807-16.553-8.1-28.131-23.331-29.79s-27.4,7.511-29.2,24.064,8.1,28.136,23.331,29.795S84.244,115.89,86.046,99.337Z" transform="translate(432.305 0)" fill="#ddadad"/>
        <path id="Path_49" data-name="Path 49" d="M63.608,87.3a28.99,28.99,0,0,0,20.8-9.643l27.481,13.771c-10,15.683-25.96,24.4-47.021,25.591C26.958,119.188,2,95.047.111,62.011S20.7,2.118,55.728.1C88.1-1.75,113.472,21.928,115.389,55.4a64.272,64.272,0,0,1-.573,13.379L36.121,73.291C40.993,84.593,51.413,88,63.608,87.3ZM81.693,45.789a22.847,22.847,0,0,0-24.5-16.162c-12.635.722-20.708,7.428-23.16,18.89Z" transform="translate(567.201 43.569)" fill="#ddadad"/>
        <path id="Path_50" data-name="Path 50" d="M65.966,0l4.127,37.521c-13.925-.694-32.738,6.971-30.324,28.82L45.3,116.2l-33.107,3.659L0,9.511,33.107,5.852l2.171,19.639C38.055,10.233,52.057,1.537,65.966,0Z" transform="translate(692.922 32.699)" fill="#ddadad"/>
      </g>
      <line id="Line_88" data-name="Line 88" x2="902" transform="translate(476.5 9250.645)" fill="none" stroke="#707070" stroke-width="1" stroke-dasharray="6"/>
      <line id="Line_90" data-name="Line 90" y2="354.903" transform="translate(541.867 9176.598)" fill="none" stroke="#707070" stroke-width="1" stroke-dasharray="6"/>
      <line id="Line_94" data-name="Line 94" x2="69" transform="translate(433.5 9491.598)" fill="none" stroke="#707070" stroke-width="1" stroke-dasharray="6"/>
      <line id="Line_92" data-name="Line 92" y2="354.903" transform="translate(837.867 9177.598)" fill="none" stroke="#707070" stroke-width="1" stroke-dasharray="6"/>
      <line id="Line_93" data-name="Line 93" y2="355.903" transform="translate(717.867 9176.598)" fill="none" stroke="#707070" stroke-width="1" stroke-dasharray="6"/>
      <line id="Line_91" data-name="Line 91" y2="316.903" transform="translate(1310.999 9175.598)" fill="none" stroke="#707070" stroke-width="1" stroke-dasharray="6"/>
      <line id="Line_89" data-name="Line 89" x2="945" transform="translate(433.5 9417.848)" fill="none" stroke="#707070" stroke-width="1" stroke-dasharray="6"/>
      <text id="x" transform="translate(497 9528)" font-size="22" font-family="Graphik-Light, Graphik" font-weight="300"><tspan x="0" y="0">x</tspan></text>
      <text id="x-2" data-name="x" transform="translate(434 9459)" font-size="22" font-family="Graphik-Light, Graphik" font-weight="300"><tspan x="0" y="0">x</tspan></text>
      <text id="_2x" data-name="2x" transform="translate(775 9528)" font-size="22" font-family="Graphik-Light, Graphik" font-weight="300"><tspan x="0" y="0">2x</tspan></text>
      <text id="_3x" data-name="3x" transform="translate(606 9528)" font-size="22" font-family="Graphik-Light, Graphik" font-weight="300"><tspan x="0" y="0">3x</tspan></text>
    </g>
  </g>
</svg>
