<svg xmlns="http://www.w3.org/2000/svg" width="459.234" height="51.732" viewBox="0 0 459.234 51.732">
  <g id="Group_622" data-name="Group 622" transform="translate(-918 -10006.875)">
    <g id="Group_145" data-name="Group 145" transform="translate(918 10007)">
      <g id="Group_143" data-name="Group 143" transform="translate(0.184 0.251)">
        <path id="Path_473" data-name="Path 473" d="M358.027,355.32l-22.343-20.746L313.344,355.32a.779.779,0,1,0,1.06,1.142l2.585-2.4v25.978h37.392V354.06l2.586,2.4a.779.779,0,0,0,1.061-1.141Zm-27.016,23.161V366.018a4.674,4.674,0,1,1,9.348,0v12.464Zm21.812,0H341.917V366.018a6.232,6.232,0,0,0-12.464,0v12.464H318.547V352.614L335.685,336.7l17.138,15.914Z" transform="translate(-313.003 -334.448)" fill="#333"/>
        <path id="Path_474" data-name="Path 474" d="M354.44,380.087H316.864V354.228l-2.431,2.257a.914.914,0,0,1-.626.232.871.871,0,0,1-.559-1.509l22.4-20.8.063.058,22.343,20.746a.871.871,0,0,1-1.186,1.276l-2.431-2.257Zm-37.392-.184h37.208V353.8l2.74,2.545a.707.707,0,0,0,.97-.036.686.686,0,0,0-.035-.971l-22.28-20.687-22.279,20.687a.687.687,0,0,0,.442,1.19.656.656,0,0,0,.494-.183l2.74-2.545Zm35.834-1.375h-11.09V365.973a6.14,6.14,0,0,0-12.28,0v12.555h-11.09v-26l.029-.027,17.2-15.971.063.058,17.168,15.941Zm-10.906-.184H352.7V352.608l-17.046-15.827-17.046,15.827v25.736h10.722V365.973a6.324,6.324,0,0,1,12.648,0Zm-1.558.184h-9.532V365.973a4.766,4.766,0,1,1,9.532,0Zm-9.348-.184h9.164V365.973a4.582,4.582,0,1,0-9.164,0Z" transform="translate(-312.971 -334.403)" fill="#333"/>
      </g>
      <g id="Group_144" data-name="Group 144" transform="translate(0 0)">
        <path id="Path_475" data-name="Path 475" d="M354.5,380.134h-37.76V354.393l-2.276,2.114a.986.986,0,0,1-.693.256.963.963,0,0,1-.618-1.668l22.467-20.863.125.116L358.087,355.1a.962.962,0,0,1,.049,1.361.993.993,0,0,1-1.361.049l-2.276-2.113Zm-37.392-.368h37.024V353.548l2.9,2.688a.611.611,0,0,0,.841-.031.6.6,0,0,0-.029-.841l-22.218-20.629L313.4,355.365a.6.6,0,0,0-.03.841.59.59,0,0,0,.412.189.556.556,0,0,0,.428-.158l2.894-2.688Zm35.834-1.191H341.668V365.928a6.048,6.048,0,0,0-12.1,0v12.647H318.3V352.443l17.322-16.083.125.116,17.2,15.968Zm-10.906-.368h10.538V352.6l-16.954-15.743L318.665,352.6v25.6H329.2V365.928a6.416,6.416,0,0,1,12.832,0Zm-1.558.368h-9.716V365.928a4.858,4.858,0,1,1,9.716,0Zm-9.348-.368h8.98V365.928a4.49,4.49,0,1,0-8.98,0Z" transform="translate(-312.754 -334.107)" fill="#333"/>
        <path id="Path_476" data-name="Path 476" d="M354.558,380.181H316.614V354.56l-2.121,1.97a1.077,1.077,0,0,1-.749.28h-.007a1.055,1.055,0,0,1-.681-1.828l22.53-20.921.188.174,22.343,20.746a1.039,1.039,0,0,1,.336.736,1.035,1.035,0,0,1-1.014,1.079H357.4a1.056,1.056,0,0,1-.716-.27l-2.121-1.97ZM316.8,380h37.576V354.136l2.431,2.257a.858.858,0,0,0,.628.221.852.852,0,0,0,.836-.889.858.858,0,0,0-.278-.607l-22.405-20.8-22.4,20.8a.871.871,0,0,0,.559,1.508h.006a.883.883,0,0,0,.621-.232l2.431-2.258Zm37.392-.184H316.982v-26.1l-2.74,2.544a.639.639,0,0,1-.5.183.675.675,0,0,1-.471-.218.69.69,0,0,1,.035-.972l22.279-20.688.063.058,22.217,20.629a.682.682,0,0,1-.444,1.184.721.721,0,0,1-.492-.177l-2.74-2.545v26.1Zm-37.024-.184h36.84V353.292l3.05,2.832a.5.5,0,0,0,.34.129h.02a.5.5,0,0,0,.35-.154.5.5,0,0,0-.025-.712l-22.155-20.57-22.154,20.572a.5.5,0,0,0-.025.711.5.5,0,0,0,.348.16.457.457,0,0,0,.362-.134l3.049-2.832ZM353,378.622H341.543V365.883a5.956,5.956,0,0,0-11.912,0v12.739H318.172V352.358l.029-.027,17.384-16.142.188.174,17.227,16Zm-11.274-.184h11.09v-26l-17.23-16-17.23,16v26h11.09V365.883a6.14,6.14,0,0,1,12.28,0Zm-1.19.184h-9.9V365.883a4.95,4.95,0,1,1,9.9,0Zm-9.716-.184h9.532V365.883a4.766,4.766,0,1,0-9.532,0Zm21.812-.184H341.911V365.883a6.324,6.324,0,0,0-12.648,0v12.371H318.54V352.518l.029-.027,17.016-15.8.063.058,16.984,15.77Zm-10.538-.184h10.354V352.6l-16.862-15.658L318.724,352.6V378.07h10.354V365.883a6.508,6.508,0,0,1,13.016,0Zm-1.926.184H331V365.883a4.582,4.582,0,1,1,9.164,0Zm-8.98-.184h8.8V365.883a4.4,4.4,0,1,0-8.8,0Z" transform="translate(-312.721 -334.062)" fill="#333"/>
      </g>
    </g>
    <g id="Group_150" data-name="Group 150" transform="translate(1334.33 10008.865)">
      <g id="Group_147" data-name="Group 147" transform="translate(10.592 0)">
        <g id="Group_146" data-name="Group 146">
          <path id="Path_477" data-name="Path 477" d="M263.171,360.4a10.764,10.764,0,1,1,10.764-10.764A10.776,10.776,0,0,1,263.171,360.4Zm0-19.228a8.464,8.464,0,1,0,8.464,8.464A8.474,8.474,0,0,0,263.171,341.171Z" transform="translate(-252.311 -338.776)"/>
          <path id="Path_478" data-name="Path 478" d="M263.142,360.466A10.859,10.859,0,1,1,274,349.606,10.872,10.872,0,0,1,263.142,360.466Zm0-21.527a10.668,10.668,0,1,0,10.668,10.668A10.68,10.68,0,0,0,263.142,338.939Zm0,19.228a8.56,8.56,0,1,1,8.56-8.56A8.57,8.57,0,0,1,263.142,358.166Zm0-16.928a8.368,8.368,0,1,0,8.369,8.368A8.378,8.378,0,0,0,263.142,341.238Z" transform="translate(-252.282 -338.747)"/>
        </g>
      </g>
      <g id="Group_149" data-name="Group 149" transform="translate(0 24.238)">
        <g id="Group_148" data-name="Group 148" transform="translate(0 0)">
          <path id="Path_479" data-name="Path 479" d="M280.151,393H239.738a1.15,1.15,0,0,1-1.15-1.15,21.356,21.356,0,0,1,42.713,0A1.15,1.15,0,0,1,280.151,393Zm-39.229-2.3h38.045a19.057,19.057,0,0,0-38.045,0Z" transform="translate(-238.492 -370.399)" fill="#404040"/>
          <path id="Path_480" data-name="Path 480" d="M280.122,393.067H239.709a1.246,1.246,0,0,1-1.246-1.245,21.452,21.452,0,0,1,42.9,0A1.246,1.246,0,0,1,280.122,393.067Zm-20.207-22.505a21.284,21.284,0,0,0-21.26,21.26,1.055,1.055,0,0,0,1.054,1.054h40.413a1.055,1.055,0,0,0,1.054-1.054A21.284,21.284,0,0,0,259.915,370.562Zm19.125,20.206H240.791l.006-.1a19.153,19.153,0,0,1,38.236,0Zm-38.045-.192h37.841a18.962,18.962,0,0,0-37.841,0Z" transform="translate(-238.463 -370.37)" fill="#404040"/>
        </g>
      </g>
    </g>
    <g id="Group_152" data-name="Group 152" transform="translate(1020.134 10008.865)">
      <g id="Group_151" data-name="Group 151" transform="translate(0 0)">
        <path id="Path_481" data-name="Path 481" d="M440.987,384.761l-11.335-11.335a19.9,19.9,0,1,0-1.965,1.965l11.335,11.335a1.4,1.4,0,0,0,.983.414,1.361,1.361,0,0,0,.982-.414A1.4,1.4,0,0,0,440.987,384.761Zm-43.448-24.377a17.1,17.1,0,1,1,17.1,17.106A17.115,17.115,0,0,1,397.539,360.385Z" transform="translate(-394.757 -340.497)" fill="#333"/>
      </g>
    </g>
    <g id="Group_159" data-name="Group 159" transform="translate(1222.463 10007)">
      <g id="Group_154" data-name="Group 154" transform="translate(0 7.508)">
        <g id="Group_153" data-name="Group 153" transform="translate(0 0)">
          <path id="Path_482" data-name="Path 482" d="M579.234,378.329l-3.686-6.139a18.255,18.255,0,0,1-2.6-9.382v-5.378a15.016,15.016,0,1,0-30.032,0v5.378a18.255,18.255,0,0,1-2.6,9.382l-3.686,6.139a1.072,1.072,0,0,0,.921,1.624h40.758a1.072,1.072,0,0,0,.921-1.624Zm-39.784-.521,2.71-4.516a20.372,20.372,0,0,0,2.9-10.484v-5.378a12.871,12.871,0,1,1,25.742,0v5.378a20.386,20.386,0,0,0,2.9,10.484l2.711,4.516Z" transform="translate(-536.482 -342.413)" fill="#333" stroke="#333" stroke-miterlimit="10" stroke-width="0.25"/>
        </g>
      </g>
      <g id="Group_156" data-name="Group 156" transform="translate(17.161 0)">
        <g id="Group_155" data-name="Group 155" transform="translate(0)">
          <path id="Path_483" data-name="Path 483" d="M559.862,334.062a4.3,4.3,0,0,0-4.291,4.29v4.29a1.073,1.073,0,0,0,2.146,0v-4.29a2.145,2.145,0,1,1,4.29,0v4.29a1.073,1.073,0,1,0,2.145,0v-4.29A4.3,4.3,0,0,0,559.862,334.062Z" transform="translate(-555.571 -334.062)" fill="#333" stroke="#333" stroke-miterlimit="10" stroke-width="0.25"/>
        </g>
      </g>
      <g id="Group_158" data-name="Group 158" transform="translate(16.089 42.903)">
        <g id="Group_157" data-name="Group 157" transform="translate(0)">
          <path id="Path_484" data-name="Path 484" d="M564.383,382.313a1.074,1.074,0,1,0-1.854,1.086,3.217,3.217,0,1,1-5.573,0,1.074,1.074,0,1,0-1.853-1.086,5.365,5.365,0,1,0,9.28,0Z" transform="translate(-554.378 -381.784)" fill="#333" stroke="#333" stroke-miterlimit="10" stroke-width="0.25"/>
        </g>
      </g>
    </g>
    <g id="Group_160" data-name="Group 160" transform="translate(1115.732 10008.865)">
      <path id="Path_486" data-name="Path 486" d="M290.809,124.543a1.128,1.128,0,0,0-1.129,1.129v10.016a3.387,3.387,0,0,1-3.384,3.384H254.641a3.388,3.388,0,0,1-3.385-3.384v-29.4a3.389,3.389,0,0,1,3.385-3.385h10.016a1.128,1.128,0,1,0,0-2.256H254.641A5.647,5.647,0,0,0,249,106.29v29.4a5.647,5.647,0,0,0,5.641,5.641H286.3a5.648,5.648,0,0,0,5.641-5.641V125.672A1.128,1.128,0,0,0,290.809,124.543Z" transform="translate(-249 -96.259)" fill="#333"/>
      <path id="Path_487" data-name="Path 487" d="M290.559,98.007a5.076,5.076,0,0,0-7.18,0l-20.127,20.127a1.127,1.127,0,0,0-.289.5l-2.646,9.555a1.127,1.127,0,0,0,1.387,1.388l9.556-2.647a1.12,1.12,0,0,0,.5-.289l20.126-20.127a5.082,5.082,0,0,0,0-7.18ZM265.71,118.867,282.183,102.4l5.312,5.312-16.472,16.473ZM264.649,121l4.244,4.245-5.871,1.626Zm25.639-16.082-1.2,1.2-5.313-5.313,1.2-1.2a2.819,2.819,0,0,1,3.988,0l1.325,1.324A2.824,2.824,0,0,1,290.288,104.915Z" transform="translate(-248.288 -96.52)" fill="#333"/>
    </g>
  </g>
</svg>
