<svg id="Group_60" data-name="Group 60" xmlns="http://www.w3.org/2000/svg" width="20.584" height="20.767" viewBox="0 0 20.584 20.767">
  <path id="Path_82" data-name="Path 82" d="M107.835-922c.165.017.329.035.494.049a9.994,9.994,0,0,1,5.464,2.2,10.214,10.214,0,0,1,3.593,5.6,10.215,10.215,0,0,1,.266,3.473,10.212,10.212,0,0,1-2.568,5.963,10.094,10.094,0,0,1-5.6,3.259,9.82,9.82,0,0,1-2.851.187,10.1,10.1,0,0,1-5.954-2.5,10.2,10.2,0,0,1-3.256-5.331,10.15,10.15,0,0,1-.266-3.433,10.237,10.237,0,0,1,3.327-6.763,9.9,9.9,0,0,1,5.171-2.546c.41-.07.828-.095,1.242-.141a.528.528,0,0,0,.077-.02Zm-.587,18.646a8.224,8.224,0,0,0,8.348-8.019,8.23,8.23,0,0,0-8-8.505,8.218,8.218,0,0,0-8.382,8.093A8.228,8.228,0,0,0,107.248-903.354Z" transform="translate(-97.112 922)" fill="#333"/>
  <path id="Path_83" data-name="Path 83" d="M276.039-749.815c-.041,0-.08.006-.119.006-.835,0-1.67,0-2.506,0a.19.19,0,0,1-.195-.121,3.115,3.115,0,0,0-5.151-.589,3.075,3.075,0,0,0-.569,3.221,3.024,3.024,0,0,0,2.48,2.038,3.116,3.116,0,0,0,3.3-1.771c.03-.062.051-.113.142-.113.862,0,1.724,0,2.586,0a.477.477,0,0,1,.053.006,5.76,5.76,0,0,1-5.478,4.575,5.811,5.811,0,0,1-5.911-5.578,5.826,5.826,0,0,1,5.391-6.136A5.754,5.754,0,0,1,276.039-749.815Z" transform="translate(-260.149 758.803)" fill="#333"/>
</svg>
